<svg width="49" height="48" viewBox="0 0 49 48" fill="none" xmlns="http://www.w3.org/2000/svg">
<g clip-path="url(#clip0_274_57178)">
<path d="M22.4277 25.1427C22.5793 25.1427 22.7246 25.0825 22.8318 24.9753C22.939 24.8682 22.9992 24.7228 22.9992 24.5713C22.9992 24.4197 22.939 24.2744 22.8318 24.1672C22.7246 24.0601 22.5793 23.9999 22.4277 23.9999H14.8297C13.6629 23.9999 12.7134 22.9747 12.7134 21.7141C12.7134 20.4324 13.6429 19.4284 14.8297 19.4284C14.9813 19.4284 15.1266 19.3682 15.2338 19.2611C15.341 19.1539 15.4012 19.0086 15.4012 18.857C15.4012 18.7055 15.341 18.5601 15.2338 18.4529C15.1266 18.3458 14.9813 18.2856 14.8297 18.2856C13.0326 18.2856 11.5706 19.8236 11.5706 21.7141C11.5706 23.6047 13.0326 25.1427 14.8297 25.1427H22.4277ZM45.8563 3.99986C45.8563 3.83033 45.806 3.66461 45.7118 3.52366C45.6177 3.3827 45.4838 3.27284 45.3272 3.20796C45.1706 3.14309 44.9982 3.12611 44.8319 3.15919C44.6657 3.19226 44.5129 3.2739 44.3931 3.39377C44.2732 3.51364 44.1916 3.66637 44.1585 3.83264C44.1254 3.99891 44.1424 4.17125 44.2073 4.32787C44.2721 4.4845 44.382 4.61836 44.523 4.71255C44.6639 4.80673 44.8296 4.857 44.9992 4.857C45.2264 4.85678 45.4443 4.7664 45.605 4.6057C45.7657 4.44501 45.8561 4.22712 45.8563 3.99986ZM44.5706 3.99986C44.5706 3.9151 44.5957 3.83224 44.6428 3.76176C44.6899 3.69128 44.7568 3.63635 44.8352 3.60391C44.9135 3.57147 44.9996 3.56299 45.0828 3.57952C45.1659 3.59606 45.2423 3.63688 45.3022 3.69681C45.3621 3.75675 45.403 3.83312 45.4195 3.91625C45.436 3.99939 45.4275 4.08556 45.3951 4.16387C45.3627 4.24218 45.3077 4.30911 45.2373 4.3562C45.1668 4.4033 45.0839 4.42843 44.9992 4.42843C44.8855 4.42836 44.7766 4.38318 44.6962 4.30282C44.6158 4.22247 44.5707 4.1135 44.5706 3.99986ZM20.142 2.28558C20.3115 2.28558 20.4773 2.2353 20.6182 2.14112C20.7592 2.04694 20.869 1.91307 20.9339 1.75645C20.9988 1.59982 21.0158 1.42748 20.9827 1.26121C20.9496 1.09494 20.868 0.942214 20.7481 0.822341C20.6282 0.702467 20.4755 0.620832 20.3092 0.587759C20.143 0.554686 19.9706 0.57166 19.814 0.636536C19.6574 0.701411 19.5235 0.811273 19.4293 0.952229C19.3351 1.09319 19.2849 1.25891 19.2849 1.42843C19.2851 1.65569 19.3755 1.87358 19.5362 2.03427C19.6969 2.19497 19.9148 2.28535 20.142 2.28558ZM20.142 0.999861C20.2268 0.999861 20.3096 1.025 20.3801 1.07209C20.4506 1.11918 20.5055 1.18611 20.538 1.26443C20.5704 1.34274 20.5789 1.42891 20.5624 1.51204C20.5458 1.59518 20.505 1.67154 20.4451 1.73148C20.3851 1.79141 20.3088 1.83223 20.2256 1.84877C20.1425 1.86531 20.0563 1.85682 19.978 1.82438C19.8997 1.79194 19.8328 1.73701 19.7857 1.66653C19.7386 1.59606 19.7134 1.5132 19.7134 1.42843C19.7135 1.31479 19.7587 1.20583 19.8391 1.12547C19.9194 1.04511 20.0284 0.999937 20.142 0.999861ZM40.142 9.71415C40.255 9.71415 40.3655 9.68063 40.4595 9.61784C40.5535 9.55505 40.6267 9.46581 40.6699 9.36139C40.7132 9.25698 40.7245 9.14208 40.7025 9.03124C40.6804 8.92039 40.626 8.81857 40.5461 8.73866C40.4662 8.65874 40.3643 8.60432 40.2535 8.58227C40.1427 8.56022 40.0278 8.57154 39.9233 8.61479C39.8189 8.65804 39.7297 8.73128 39.6669 8.82525C39.6041 8.91922 39.5706 9.0297 39.5706 9.14272C39.5707 9.29422 39.631 9.43948 39.7381 9.54661C39.8453 9.65374 39.9905 9.71399 40.142 9.71415ZM40.142 8.857C40.1985 8.857 40.2538 8.87376 40.3008 8.90515C40.3477 8.93655 40.3844 8.98117 40.406 9.03338C40.4276 9.08559 40.4333 9.14303 40.4222 9.19846C40.4112 9.25388 40.384 9.30479 40.344 9.34475C40.3041 9.38471 40.2532 9.41192 40.1978 9.42294C40.1423 9.43397 40.0849 9.42831 40.0327 9.40668C39.9805 9.38506 39.9359 9.34844 39.9045 9.30145C39.8731 9.25447 39.8563 9.19923 39.8563 9.14272C39.8564 9.06697 39.8865 8.99434 39.9401 8.94077C39.9936 8.88721 40.0663 8.85708 40.142 8.857ZM29.5706 5.71415C29.6836 5.71415 29.7941 5.68063 29.8881 5.61784C29.982 5.55505 30.0553 5.46581 30.0985 5.36139C30.1418 5.25698 30.1531 5.14208 30.131 5.03124C30.109 4.92039 30.0546 4.81857 29.9747 4.73866C29.8947 4.65874 29.7929 4.60432 29.6821 4.58227C29.5712 4.56022 29.4563 4.57154 29.3519 4.61479C29.2475 4.65804 29.1583 4.73128 29.0955 4.82525C29.0327 4.91922 28.9992 5.0297 28.9992 5.14272C28.9993 5.29422 29.0596 5.43948 29.1667 5.54661C29.2738 5.65374 29.4191 5.71399 29.5706 5.71415ZM29.5706 4.857C29.6271 4.857 29.6823 4.87376 29.7293 4.90515C29.7763 4.93655 29.8129 4.98117 29.8346 5.03338C29.8562 5.08559 29.8618 5.14303 29.8508 5.19846C29.8398 5.25388 29.8126 5.30479 29.7726 5.34475C29.7327 5.38471 29.6818 5.41192 29.6263 5.42294C29.5709 5.43397 29.5135 5.42831 29.4613 5.40668C29.409 5.38506 29.3644 5.34844 29.333 5.30145C29.3016 5.25447 29.2849 5.19923 29.2849 5.14272C29.285 5.06697 29.3151 4.99434 29.3686 4.94077C29.4222 4.88721 29.4948 4.85708 29.5706 4.857ZM6.99916 12.2856C7.11218 12.2856 7.22266 12.2521 7.31663 12.1893C7.4106 12.1265 7.48384 12.0372 7.52709 11.9328C7.57034 11.8284 7.58166 11.7135 7.55961 11.6027C7.53756 11.4918 7.48314 11.39 7.40322 11.3101C7.32331 11.2302 7.22149 11.1757 7.11064 11.1537C6.9998 11.1316 6.8849 11.143 6.78049 11.1862C6.67607 11.2295 6.58683 11.3027 6.52404 11.3967C6.46125 11.4906 6.42773 11.6011 6.42773 11.7141C6.42789 11.8657 6.48814 12.0109 6.59527 12.118C6.7024 12.2252 6.84766 12.2854 6.99916 12.2856ZM6.99916 11.4284C7.05567 11.4284 7.11091 11.4452 7.1579 11.4766C7.20488 11.508 7.2415 11.5526 7.26313 11.6048C7.28475 11.657 7.29041 11.7145 7.27939 11.7699C7.26836 11.8253 7.24115 11.8762 7.20119 11.9162C7.16124 11.9561 7.11033 11.9833 7.0549 11.9944C6.99948 12.0054 6.94203 11.9997 6.88982 11.9781C6.83762 11.9565 6.79299 11.9199 6.7616 11.8729C6.73021 11.8259 6.71345 11.7707 6.71345 11.7141C6.71352 11.6384 6.74365 11.5658 6.79722 11.5122C6.85078 11.4586 6.92341 11.4285 6.99916 11.4284Z" fill="white"/>
<path d="M0.714007 42.2859C1.0296 42.2859 1.28544 42.0301 1.28544 41.7145C1.28544 41.3989 1.0296 41.1431 0.714007 41.1431C0.398415 41.1431 0.142578 41.3989 0.142578 41.7145C0.142578 42.0301 0.398415 42.2859 0.714007 42.2859Z" fill="white"/>
<path d="M3.28599 41.1431H2.42885C2.2773 41.1431 2.13195 41.2033 2.02479 41.3104C1.91763 41.4176 1.85742 41.5629 1.85742 41.7145C1.85742 41.866 1.91763 42.0114 2.02479 42.1186C2.13195 42.2257 2.2773 42.2859 2.42885 42.2859H3.28599C3.43755 42.2859 3.58289 42.2257 3.69005 42.1186C3.79722 42.0114 3.85742 41.866 3.85742 41.7145C3.85742 41.5629 3.79722 41.4176 3.69005 41.3104C3.58289 41.2033 3.43755 41.1431 3.28599 41.1431ZM45.8574 41.1431H45.0003C44.8487 41.1431 44.7034 41.2033 44.5962 41.3104C44.4891 41.4176 44.4289 41.5629 44.4289 41.7145C44.4289 41.866 44.4891 42.0114 44.5962 42.1186C44.7034 42.2257 44.8487 42.2859 45.0003 42.2859H45.8574C46.009 42.2859 46.1543 42.2257 46.2615 42.1186C46.3686 42.0114 46.4289 41.866 46.4289 41.7145C46.4289 41.5629 46.3686 41.4176 46.2615 41.3104C46.1543 41.2033 46.009 41.1431 45.8574 41.1431Z" fill="white"/>
<path d="M47.5714 42.2859C47.887 42.2859 48.1429 42.0301 48.1429 41.7145C48.1429 41.3989 47.887 41.1431 47.5714 41.1431C47.2558 41.1431 47 41.3989 47 41.7145C47 42.0301 47.2558 42.2859 47.5714 42.2859Z" fill="white"/>
<path d="M43.2066 41.1429H37.5738L37.4598 40.2857H40.7149C41.1692 40.2844 41.6044 40.1033 41.9256 39.7821C42.2468 39.4609 42.4279 39.0257 42.4292 38.5715V33.1429C42.4279 32.6886 42.2468 32.2534 41.9256 31.9322C41.6044 31.611 41.1692 31.43 40.7149 31.4286H36.4292V28.5715H37.8672C39.0774 28.5666 40.2364 28.0831 41.0912 27.2264C41.946 26.3698 42.427 25.2096 42.4292 23.9995C42.4018 23.015 42.0633 22.0645 41.4623 21.2843C40.8613 20.5041 40.0287 19.9343 39.0838 19.6566C39.2397 19.0858 39.3166 18.4963 39.3124 17.9046C39.3171 17.0039 39.1434 16.1113 38.8013 15.2781C38.4593 14.4449 37.9557 13.6877 37.3195 13.0501C36.6833 12.4126 35.9271 11.9073 35.0947 11.5635C34.2622 11.2197 33.3699 11.0441 32.4692 11.0469C31.5541 11.0322 30.6466 11.2144 29.8081 11.5812C29.2107 9.6715 27.9486 8.03923 26.2507 6.98055C24.5528 5.92188 22.5316 5.50695 20.5539 5.81106C18.5763 6.11516 16.7731 7.11816 15.4717 8.63804C14.1704 10.1579 13.4569 12.094 13.4609 14.0949C13.4546 14.3081 13.4662 14.5216 13.4955 14.7329C13.5061 14.7966 13.5195 14.8632 13.5369 14.9337C13.4656 14.9155 13.3936 14.9005 13.3209 14.8889C13.1155 14.8615 12.9081 14.8507 12.7009 14.8566C10.9579 14.8606 9.28179 15.5281 8.01326 16.7235C6.74472 17.9189 5.97895 19.5524 5.87158 21.2921C5.76422 23.0319 6.32331 24.7472 7.43524 26.0895C8.54716 27.4318 10.1285 28.3003 11.8578 28.5186V31.4286H7.57207C7.11783 31.43 6.68258 31.611 6.36138 31.9322C6.04018 32.2534 5.85914 32.6886 5.85778 33.1429V38.5715C5.85914 39.0257 6.04018 39.4609 6.36138 39.7821C6.68258 40.1033 7.11783 40.2844 7.57207 40.2857H10.8272L10.7132 41.1429H5.08064C4.99934 41.1323 4.91672 41.1391 4.83828 41.163C4.75985 41.1868 4.6874 41.2271 4.62579 41.2812C4.56418 41.3353 4.51481 41.4019 4.481 41.4766C4.44718 41.5513 4.42969 41.6323 4.42969 41.7143C4.42969 41.7963 4.44718 41.8773 4.481 41.952C4.51481 42.0267 4.56418 42.0933 4.62579 42.1474C4.6874 42.2015 4.75985 42.2418 4.83828 42.2657C4.91672 42.2895 4.99934 42.2964 5.08064 42.2857H43.2064C43.2876 42.2964 43.3703 42.2895 43.4487 42.2657C43.5271 42.2418 43.5996 42.2015 43.6612 42.1474C43.7228 42.0933 43.7722 42.0267 43.806 41.952C43.8398 41.8773 43.8573 41.7963 43.8573 41.7143C43.8573 41.6323 43.8398 41.5513 43.806 41.4766C43.7722 41.4019 43.7228 41.3353 43.6612 41.2812C43.5996 41.2271 43.5271 41.1868 43.4487 41.163C43.3703 41.1391 43.2876 41.1323 43.2064 41.1429H43.2066ZM40.7149 39.1429H31.0006C30.8497 39.1409 30.7055 39.08 30.5988 38.9733C30.4921 38.8666 30.4312 38.7224 30.4292 38.5715H41.2864C41.2844 38.7224 41.2235 38.8666 41.1168 38.9733C41.01 39.08 40.8659 39.1409 40.7149 39.1429ZM40.7149 32.5715C40.8659 32.5735 41.01 32.6343 41.1168 32.741C41.2235 32.8478 41.2844 32.992 41.2864 33.1429V37.4286H30.4292V33.1429C30.4312 32.992 30.4921 32.8478 30.5988 32.741C30.7055 32.6343 30.8497 32.5735 31.0006 32.5715H40.7149ZM7.00064 21.7143C6.99155 20.9625 7.13268 20.2165 7.41574 19.52C7.69881 18.8235 8.11811 18.1905 8.64906 17.6582C9.18 17.1259 9.8119 16.705 10.5077 16.4202C11.2035 16.1353 11.9491 15.9923 12.7009 15.9995C12.8498 15.9946 12.9988 16.001 13.1466 16.0186C13.1769 16.0232 13.2152 16.0312 13.2598 16.0423L15.0978 16.5017L14.6469 14.6617C14.638 14.6252 14.6304 14.5883 14.6241 14.5512C14.6053 14.3998 14.5986 14.2473 14.6041 14.0949C14.6003 12.3675 15.2157 10.696 16.3389 9.38361C17.462 8.07121 19.0184 7.20487 20.7256 6.94178C22.4328 6.67868 24.1778 7.03626 25.6439 7.94963C27.1101 8.863 28.2002 10.2717 28.7166 11.92L28.8169 12.2429C28.8095 12.2971 28.8099 12.3522 28.8184 12.4063C28.9086 12.9363 28.9852 14.4615 28.2675 15.1466C28.2123 15.1982 28.1679 15.2602 28.1369 15.329C28.1058 15.3979 28.0887 15.4722 28.0865 15.5477C28.0844 15.6232 28.0972 15.6984 28.1243 15.7689C28.1514 15.8394 28.1921 15.9038 28.2443 15.9585C28.2964 16.0131 28.3589 16.0569 28.428 16.0873C28.4972 16.1176 28.5717 16.134 28.6472 16.1354C28.7227 16.1368 28.7978 16.1232 28.868 16.0954C28.9382 16.0676 29.0022 16.0261 29.0564 15.9735C30.0049 15.0677 30.0535 13.5529 30.0021 12.7489L30.2826 12.6209C30.9722 12.3221 31.7179 12.1751 32.4692 12.1897C33.221 12.1826 33.9666 12.3257 34.6624 12.6105C35.3581 12.8954 35.99 13.3163 36.5209 13.8486C37.0518 14.3809 37.4711 15.0139 37.7541 15.7104C38.0372 16.4069 38.1783 17.1529 38.1692 17.9046C38.1739 18.3898 38.112 18.8734 37.9852 19.3417L37.6684 20.4463L38.7749 20.7569C39.4848 20.9653 40.1104 21.3934 40.5617 21.9798C41.0129 22.5661 41.2666 23.2804 41.2864 24.02C41.2812 24.9243 40.919 25.7899 40.2786 26.4283C39.6382 27.0668 38.7715 27.4263 37.8672 27.4286H12.7009C11.9492 27.4358 11.2035 27.2928 10.5078 27.008C9.81201 26.7232 9.18012 26.3024 8.64918 25.7701C8.11823 25.2379 7.69892 24.605 7.41583 23.9085C7.13274 23.212 6.99159 22.4661 7.00064 21.7143ZM7.00064 33.1429C7.00263 32.992 7.06348 32.8478 7.17021 32.741C7.27695 32.6343 7.42113 32.5735 7.57207 32.5715H17.2864C17.4373 32.5735 17.5815 32.6343 17.6882 32.741C17.7949 32.8478 17.8558 32.992 17.8578 33.1429V37.4286H7.00064V33.1429ZM7.57207 39.1429C7.42113 39.1409 7.27695 39.08 7.17021 38.9733C7.06348 38.8666 7.00263 38.7224 7.00064 38.5715H17.8578C17.8558 38.7224 17.7949 38.8666 17.6882 38.9733C17.5815 39.08 17.4373 39.1409 17.2864 39.1429H7.57207ZM11.8664 41.1429L11.9801 40.2857H12.8784L12.9924 41.1429H11.8664ZM33.1232 41.1429H14.1452L14.0312 40.2857H17.2864C17.7406 40.2844 18.1758 40.1033 18.497 39.7821C18.8182 39.4609 18.9993 39.0257 19.0006 38.5715V33.1429C18.9993 32.6886 18.8182 32.2534 18.497 31.9322C18.1758 31.611 17.7406 31.43 17.2864 31.4286H13.0006V28.5715H35.2864V31.4286H31.0006C30.5464 31.43 30.1112 31.611 29.79 31.9322C29.4688 32.2534 29.2877 32.6886 29.2864 33.1429V38.5715C29.2877 39.0257 29.4688 39.4609 29.79 39.7821C30.1112 40.1033 30.5464 40.2844 31.0006 40.2857H34.2558L34.1418 41.1429H33.1232ZM35.2946 41.1429L35.4086 40.2857H36.3069L36.4209 41.1429H35.2946Z" fill="white"/>
<path d="M24.714 25.1429C25.0296 25.1429 25.2854 24.887 25.2854 24.5714C25.2854 24.2558 25.0296 24 24.714 24C24.3984 24 24.1426 24.2558 24.1426 24.5714C24.1426 24.887 24.3984 25.1429 24.714 25.1429Z" fill="#FAFAFA"/>
<path d="M3.73817 19.7176L4.16303 19.159L3.89474 19.007L3.62217 19.6327H3.61303L3.33589 19.0113L3.06303 19.1679L3.48331 19.7133V19.7222L2.82617 19.6373V19.9413L3.48789 19.8565V19.8653L3.06303 20.4105L3.31789 20.5716L3.60874 19.9413H3.61731L3.8856 20.567L4.16731 20.4062L3.73817 19.8696V19.8607L4.41303 19.9413V19.6373L3.73817 19.7265V19.7176ZM7.9376 3.93417L8.18217 3.61245L8.02789 3.52503L7.87074 3.88531H7.8656L7.70617 3.52731L7.54874 3.6176L7.79103 3.9316V3.93674L7.41246 3.88788V4.06303L7.7936 4.01417V4.01931L7.54874 4.33331L7.6956 4.42588L7.86303 4.06303H7.86817L8.02246 4.42331L8.18474 4.33074L7.9376 4.0216V4.01645L8.32617 4.06303V3.88788L7.9376 3.93931V3.93417ZM36.9096 3.98474L37.3265 3.43674L37.0633 3.2876L36.7959 3.90131H36.7867L36.515 3.29188L36.2473 3.4456L36.6596 3.98045V3.98931L36.015 3.90588V4.20388L36.6639 4.12074V4.1296L36.2473 4.66446L36.4973 4.82245L36.7825 4.20388H36.791L37.0542 4.81788L37.3305 4.66017L36.9096 4.13388V4.12503L37.5716 4.20388V3.90588L36.9096 3.9936V3.98474ZM41.6979 16.071V15.8139L41.1267 15.8893V15.8819L41.4862 15.409L41.2593 15.2805L41.0285 15.8099H41.021L40.7865 15.2842L40.5556 15.4167L40.9113 15.8782V15.8856L40.355 15.8139V16.071L40.915 15.999V16.0067L40.5556 16.4682L40.771 16.6045L41.0173 16.071H41.0245L41.2516 16.6005L41.4899 16.4645L41.1267 16.0105V16.0027L41.6979 16.071ZM33.9013 43.7145H31.5276C31.3837 43.7256 31.2493 43.7907 31.1513 43.8966C31.0532 44.0025 30.9988 44.1415 30.9988 44.2859C30.9988 44.4302 31.0532 44.5692 31.1513 44.6752C31.2493 44.7811 31.3837 44.8462 31.5276 44.8573H33.9013C34.0452 44.8462 34.1796 44.7811 34.2777 44.6752C34.3757 44.5692 34.4302 44.4302 34.4302 44.2859C34.4302 44.1415 34.3757 44.0025 34.2777 43.8966C34.1796 43.7907 34.0452 43.7256 33.9013 43.7145ZM16.7585 43.7145H14.3847C14.2408 43.7256 14.1064 43.7907 14.0084 43.8966C13.9104 44.0025 13.8559 44.1415 13.8559 44.2859C13.8559 44.4302 13.9104 44.5692 14.0084 44.6752C14.1064 44.7811 14.2408 44.8462 14.3847 44.8573H16.7585C16.9024 44.8462 17.0368 44.7811 17.1348 44.6752C17.2328 44.5692 17.2873 44.4302 17.2873 44.2859C17.2873 44.1415 17.2328 44.0025 17.1348 43.8966C17.0368 43.7907 16.9024 43.7256 16.7585 43.7145ZM29.8573 43.7145H18.4287C18.2772 43.7145 18.1318 43.7747 18.0247 43.8818C17.9175 43.989 17.8573 44.1343 17.8573 44.2859C17.8573 44.4374 17.9175 44.5828 18.0247 44.6899C18.1318 44.7971 18.2772 44.8573 18.4287 44.8573H22.983V45.4287H20.7145C20.5629 45.4287 20.4176 45.4889 20.3104 45.5961C20.2032 45.7033 20.143 45.8486 20.143 46.0002C20.143 46.1517 20.2032 46.2971 20.3104 46.4042C20.4176 46.5114 20.5629 46.5716 20.7145 46.5716H27.8573C28.0089 46.5716 28.1542 46.5114 28.2614 46.4042C28.3685 46.2971 28.4287 46.1517 28.4287 46.0002C28.4287 45.8486 28.3685 45.7033 28.2614 45.5961C28.1542 45.4889 28.0089 45.4287 27.8573 45.4287H25.303V44.8573H29.8573C30.0089 44.8573 30.1542 44.7971 30.2614 44.6899C30.3685 44.5828 30.4287 44.4374 30.4287 44.2859C30.4287 44.1343 30.3685 43.989 30.2614 43.8818C30.1542 43.7747 30.0089 43.7145 29.8573 43.7145Z" fill="#FAFAFA"/>
</g>
<defs>
<clipPath id="clip0_274_57178">
<rect width="48" height="48" fill="white" transform="translate(0.142578)"/>
</clipPath>
</defs>
</svg>
