<svg width="603" height="402" viewBox="0 0 603 402" fill="none" xmlns="http://www.w3.org/2000/svg">
<path d="M526.621 307.723C524.703 307.731 522.826 307.17 521.228 306.11C519.629 305.05 518.381 303.54 517.642 301.77C516.902 300.001 516.705 298.051 517.074 296.169C517.443 294.288 518.363 292.557 519.716 291.199C521.069 289.84 522.795 288.913 524.676 288.536C526.556 288.159 528.506 288.348 530.279 289.08C532.052 289.812 533.567 291.054 534.633 292.648C535.7 294.242 536.269 296.117 536.269 298.035C536.267 300.597 535.251 303.054 533.443 304.869C531.635 306.684 529.183 307.71 526.621 307.723ZM526.621 293.54C525.732 293.539 524.862 293.801 524.122 294.294C523.382 294.787 522.804 295.488 522.463 296.309C522.122 297.13 522.031 298.034 522.204 298.907C522.376 299.779 522.804 300.581 523.432 301.21C524.06 301.839 524.861 302.268 525.733 302.442C526.605 302.616 527.509 302.528 528.331 302.188C529.153 301.848 529.855 301.272 530.349 300.533C530.843 299.793 531.107 298.924 531.107 298.035C531.105 296.845 530.632 295.704 529.791 294.862C528.951 294.02 527.811 293.545 526.621 293.54Z" fill="#EBEBEB"/>
<path d="M526.621 353.8C524.703 353.808 522.826 353.247 521.228 352.187C519.629 351.127 518.381 349.617 517.642 347.847C516.902 346.078 516.705 344.129 517.074 342.247C517.443 340.365 518.363 338.635 519.716 337.276C521.069 335.917 522.795 334.99 524.676 334.613C526.556 334.236 528.506 334.425 530.279 335.157C532.052 335.89 533.567 337.131 534.633 338.725C535.7 340.319 536.269 342.194 536.269 344.112C536.267 346.674 535.251 349.131 533.443 350.946C531.635 352.761 529.183 353.787 526.621 353.8ZM526.621 339.626C525.734 339.626 524.866 339.889 524.128 340.382C523.391 340.875 522.816 341.575 522.476 342.395C522.137 343.215 522.048 344.117 522.221 344.987C522.394 345.857 522.821 346.657 523.449 347.284C524.076 347.912 524.875 348.339 525.746 348.512C526.616 348.685 527.518 348.596 528.338 348.257C529.158 347.917 529.858 347.342 530.351 346.604C530.844 345.867 531.107 344.999 531.107 344.112C531.105 342.923 530.632 341.783 529.791 340.942C528.95 340.101 527.81 339.628 526.621 339.626Z" fill="#EBEBEB"/>
<path d="M565.896 353.8C563.979 353.808 562.101 353.247 560.503 352.187C558.904 351.127 557.656 349.617 556.917 347.847C556.178 346.078 555.98 344.129 556.349 342.247C556.719 340.365 557.638 338.635 558.991 337.276C560.345 335.917 562.071 334.99 563.951 334.613C565.832 334.236 567.782 334.425 569.554 335.157C571.327 335.89 572.842 337.131 573.909 338.725C574.975 340.319 575.544 342.194 575.544 344.112C575.54 346.673 574.524 349.129 572.716 350.944C570.909 352.759 568.458 353.785 565.896 353.8ZM565.896 339.626C565.009 339.627 564.143 339.892 563.406 340.386C562.669 340.88 562.096 341.581 561.757 342.401C561.419 343.221 561.331 344.122 561.505 344.992C561.679 345.862 562.107 346.66 562.735 347.287C563.363 347.914 564.162 348.34 565.032 348.513C565.902 348.685 566.804 348.596 567.623 348.256C568.442 347.916 569.143 347.341 569.635 346.604C570.128 345.866 570.391 344.999 570.391 344.112C570.391 343.522 570.274 342.938 570.048 342.393C569.823 341.848 569.491 341.353 569.074 340.937C568.656 340.52 568.161 340.19 567.616 339.965C567.07 339.74 566.486 339.625 565.896 339.626Z" fill="#EBEBEB"/>
<path d="M528.977 305.247H523.775V337.801H528.977V305.247Z" fill="#EBEBEB"/>
<path d="M569.418 339.039H564.224V311.952C564.22 308.943 563.022 306.058 560.894 303.93C558.766 301.801 555.881 300.604 552.871 300.6H546.102V295.398H552.871C557.259 295.404 561.465 297.151 564.567 300.254C567.669 303.358 569.413 307.565 569.418 311.952V339.039Z" fill="#EBEBEB"/>
<path d="M549.801 288.475V306.975L539.711 298.035L549.801 288.475Z" fill="#EBEBEB"/>
<path d="M71.6528 94.0918H31.5332V160.663H71.6528V94.0918Z" fill="#F5F5F5"/>
<path d="M116.549 94.0918H73.1973V160.663H116.549V94.0918Z" fill="#F5F5F5"/>
<path d="M116.549 165.318H73.1973V229.638H116.549V165.318Z" fill="#F5F5F5"/>
<path d="M122.096 92.9424H167.747V33.8886H169.291V92.9424H206.443V32.5781H122.096V92.9424Z" fill="#F5F5F5"/>
<path d="M206.444 94.0918H169.291V160.663H206.444V94.0918Z" fill="#F5F5F5"/>
<path d="M206.444 165.318H169.291V229.638H206.444V165.318Z" fill="#F5F5F5"/>
<path d="M71.6528 165.318H31.5332V229.638H71.6528V165.318Z" fill="#F5F5F5"/>
<path d="M167.747 165.318H122.096V229.638H167.747V165.318Z" fill="#F5F5F5"/>
<path d="M71.6528 230.788H31.5332V288.748H71.6528V230.788Z" fill="#F5F5F5"/>
<path d="M206.444 230.788H169.291V288.748H206.444V230.788Z" fill="#F5F5F5"/>
<path d="M71.6528 92.9424V33.8886H73.1965V92.9424H116.54V32.5781H31.5332V92.9424H71.6528Z" fill="#F5F5F5"/>
<path d="M167.747 230.788H122.096V288.748H167.747V230.788Z" fill="#F5F5F5"/>
<path d="M116.549 230.788H73.1973V288.748H116.549V230.788Z" fill="#F5F5F5"/>
<path d="M167.747 94.0918H122.096V160.663H167.747V94.0918Z" fill="#F5F5F5"/>
<path d="M377.978 91.3667H339.635V154.987H377.978V91.3667Z" fill="#F5F5F5"/>
<path d="M420.871 91.3667H379.449V154.987H420.871V91.3667Z" fill="#F5F5F5"/>
<path d="M420.871 159.425H379.449V220.891H420.871V159.425Z" fill="#F5F5F5"/>
<path d="M426.176 90.2651H469.801V33.8243H471.28V90.2651H506.785V32.5781H426.176V90.2651Z" fill="#F5F5F5"/>
<path d="M506.786 91.3667H471.281V154.987H506.786V91.3667Z" fill="#F5F5F5"/>
<path d="M506.786 159.425H471.281V220.891H506.786V159.425Z" fill="#F5F5F5"/>
<path d="M377.978 159.425H339.635V220.891H377.978V159.425Z" fill="#F5F5F5"/>
<path d="M469.801 159.425H426.176V220.891H469.801V159.425Z" fill="#F5F5F5"/>
<path d="M377.969 90.2651V33.8243H379.441V90.2651H420.871V32.5781H339.635V90.2651H377.969Z" fill="#F5F5F5"/>
<path d="M469.801 91.3667H426.176V154.987H469.801V91.3667Z" fill="#F5F5F5"/>
<path d="M305.577 126.711L294.683 121.782C288.791 124.868 281.963 125.656 275.522 123.995C269.082 122.333 263.488 118.34 259.824 112.789C256.16 107.238 254.687 100.524 255.69 93.9494C256.694 87.3743 260.103 81.4058 265.256 77.2007C270.409 72.9957 276.94 70.8534 283.583 71.189C290.226 71.5247 296.508 74.3143 301.211 79.0175C305.914 83.7206 308.704 90.0022 309.04 96.645C309.376 103.288 307.233 109.819 303.028 114.972L305.577 126.711ZM294.651 120.777L304.299 125.151L302.04 114.755L302.176 114.586C306.155 109.807 308.282 103.757 308.17 97.5404C308.058 91.3233 305.714 85.3538 301.567 80.7213C297.419 76.0888 291.743 73.1023 285.576 72.3068C279.409 71.5113 273.162 72.96 267.974 76.3883C262.787 79.8165 259.005 84.9959 257.319 90.9811C255.633 96.9663 256.156 103.358 258.791 108.99C261.427 114.622 266 119.118 271.675 121.659C277.351 124.199 283.75 124.614 289.706 122.827C291.344 122.335 292.931 121.683 294.442 120.882L294.651 120.777Z" fill="#E0E0E0"/>
<path d="M284.508 108.093C287.751 95.4343 280.118 82.5429 267.459 79.2996C254.8 76.0564 241.909 83.6895 238.665 96.3486C235.422 109.008 243.055 121.899 255.714 125.142C268.374 128.386 281.265 120.753 284.508 108.093Z" fill="#E0E0E0"/>
<path d="M244.336 115.31L241.916 127.812L253.1 122.425L244.336 115.31Z" fill="#E0E0E0"/>
<path d="M251.756 105.396C253.514 105.396 254.94 103.971 254.94 102.213C254.94 100.454 253.514 99.0288 251.756 99.0288C249.998 99.0288 248.572 100.454 248.572 102.213C248.572 103.971 249.998 105.396 251.756 105.396Z" fill="white"/>
<path d="M263.711 102.213C263.711 102.849 263.523 103.47 263.169 103.999C262.816 104.528 262.314 104.94 261.726 105.184C261.138 105.427 260.492 105.491 259.868 105.367C259.244 105.243 258.671 104.936 258.221 104.487C257.771 104.037 257.465 103.464 257.341 102.84C257.217 102.216 257.281 101.57 257.524 100.982C257.767 100.394 258.18 99.892 258.709 99.5386C259.237 99.1852 259.859 98.9966 260.495 98.9966C261.348 98.9966 262.166 99.3354 262.769 99.9385C263.372 100.542 263.711 101.36 263.711 102.213Z" fill="white"/>
<path d="M269.244 105.396C271.003 105.396 272.428 103.971 272.428 102.213C272.428 100.454 271.003 99.0288 269.244 99.0288C267.486 99.0288 266.061 100.454 266.061 102.213C266.061 103.971 267.486 105.396 269.244 105.396Z" fill="white"/>
<path d="M249.746 369.302C249.746 369.422 198.909 369.511 136.205 369.511C73.5012 369.511 22.6562 369.422 22.6562 369.302C22.6562 369.181 73.4851 369.093 136.205 369.093C198.925 369.093 249.746 369.189 249.746 369.302Z" fill="#263238"/>
<path d="M580.344 245.22C580.344 245.333 542.009 245.429 494.726 245.429C447.442 245.429 409.1 245.333 409.1 245.22C409.1 245.108 447.426 245.011 494.726 245.011C542.025 245.011 580.344 245.059 580.344 245.22Z" fill="#263238"/>
<path d="M456.84 99.3579L449.057 94.2284C448.471 86.8255 445.136 79.9098 439.709 74.8405C434.283 69.7711 427.156 66.9148 419.731 66.8329C412.305 66.7509 405.117 69.4493 399.58 74.3977C394.043 79.346 390.556 86.1865 389.806 93.5746C389.056 100.963 391.097 108.364 395.527 114.324C399.957 120.285 406.455 124.372 413.746 125.784C421.037 127.196 428.592 125.83 434.927 121.955C441.261 118.08 445.917 111.975 447.98 104.841L456.84 99.3579Z" fill="white"/>
<path d="M456.841 99.3579L456.246 99.7116L454.525 100.757L447.932 104.777L448.069 104.857C448.07 104.845 448.069 104.833 448.065 104.821C448.061 104.809 448.054 104.799 448.046 104.789C448.038 104.78 448.028 104.773 448.016 104.768C448.005 104.763 447.993 104.761 447.981 104.761C447.961 104.76 447.941 104.766 447.925 104.778C447.909 104.789 447.898 104.806 447.892 104.825C446.495 109.582 443.934 113.915 440.439 117.432C439.362 118.519 438.201 119.519 436.966 120.423C435.632 121.37 434.229 122.216 432.769 122.955C426.996 125.868 420.427 126.806 414.07 125.623C407.712 124.441 401.919 121.204 397.58 116.41C393.241 111.616 390.596 105.53 390.051 99.0871C389.505 92.644 391.091 86.2001 394.563 80.7453C397.048 76.8857 400.381 73.6437 404.307 71.2661C408.011 69.0471 412.159 67.6744 416.456 67.2461C424.098 66.4852 431.738 68.7093 437.778 73.453L438.759 74.257C439.086 74.502 439.395 74.7707 439.683 75.061C440.27 75.6399 440.841 76.2188 441.404 76.7816C442.411 77.9465 443.35 79.1678 444.218 80.4398C446.924 84.5604 448.557 89.2919 448.969 94.2042C448.968 94.2178 448.972 94.2314 448.979 94.243C448.986 94.2545 448.997 94.2635 449.01 94.2686L454.807 98.0232L456.31 98.9961L456.841 99.3257C456.841 99.3257 456.688 99.2132 456.358 98.9961L454.895 98.0072L449.106 94.1238V94.1882C448.742 89.248 447.141 84.4787 444.451 80.3192C443.576 79.0327 442.632 77.7954 441.621 76.6127L439.892 74.868C439.61 74.5649 439.307 74.2827 438.984 74.0238L437.995 73.2198C435.122 70.9366 431.851 69.2056 428.347 68.1144C424.491 66.9031 420.43 66.482 416.407 66.8763C412.054 67.2866 407.847 68.6598 404.09 70.8963C400.106 73.2951 396.725 76.5766 394.209 80.488C391.573 84.5951 389.993 89.2905 389.61 94.156C389.54 94.7564 389.511 95.3607 389.522 95.965V97.766L389.674 99.5589C389.709 100.153 389.784 100.744 389.9 101.328C390.012 101.915 390.117 102.493 390.221 103.072C390.326 103.651 390.527 104.214 390.679 104.785C390.832 105.356 390.985 105.919 391.186 106.473L391.837 108.081C393.573 112.299 396.268 116.054 399.708 119.048C404.193 122.984 409.757 125.484 415.678 126.223C421.599 126.963 427.606 125.908 432.922 123.196C434.394 122.443 435.807 121.58 437.151 120.616C438.396 119.701 439.566 118.687 440.648 117.585C444.157 114.023 446.712 109.635 448.077 104.825H447.892C447.892 104.849 447.901 104.873 447.917 104.891C447.934 104.908 447.956 104.92 447.981 104.922H448.037L454.63 100.765L456.302 99.7036L456.841 99.3579Z" fill="#263238"/>
<path d="M413.569 91.7358C412.866 91.7358 412.179 91.5272 411.594 91.1363C411.01 90.7455 410.554 90.19 410.285 89.5402C410.017 88.8904 409.947 88.1754 410.084 87.4859C410.222 86.7963 410.562 86.1631 411.059 85.6664C411.557 85.1698 412.191 84.8319 412.881 84.6957C413.571 84.5595 414.286 84.631 414.935 84.9012C415.584 85.1714 416.138 85.6282 416.528 86.2136C416.917 86.7991 417.125 87.487 417.123 88.1901C417.121 89.1312 416.746 90.0331 416.079 90.6978C415.413 91.3625 414.51 91.7358 413.569 91.7358ZM413.569 86.5419C413.253 86.5498 412.946 86.6508 412.687 86.8323C412.428 87.0137 412.228 87.2675 412.113 87.5619C411.997 87.8564 411.971 88.1783 412.037 88.4876C412.104 88.7968 412.26 89.0795 412.487 89.3004C412.713 89.5213 413 89.6705 413.31 89.7294C413.621 89.7882 413.942 89.7541 414.234 89.6313C414.525 89.5085 414.774 89.3025 414.949 89.039C415.124 88.7755 415.217 88.4662 415.218 88.1499C415.218 87.9353 415.175 87.7229 415.091 87.5252C415.008 87.3274 414.886 87.1483 414.732 86.9985C414.579 86.8486 414.397 86.731 414.197 86.6526C413.997 86.5742 413.784 86.5366 413.569 86.5419Z" fill="#263238"/>
<path d="M413.569 108.62C412.866 108.62 412.179 108.412 411.595 108.021C411.011 107.631 410.555 107.076 410.286 106.426C410.017 105.777 409.947 105.062 410.084 104.373C410.221 103.684 410.559 103.051 411.056 102.554C411.553 102.057 412.187 101.718 412.876 101.581C413.565 101.444 414.28 101.514 414.929 101.783C415.579 102.052 416.134 102.508 416.524 103.092C416.915 103.676 417.123 104.364 417.123 105.066C417.123 106.009 416.749 106.913 416.082 107.579C415.416 108.246 414.512 108.62 413.569 108.62ZM413.569 103.426C413.253 103.434 412.946 103.535 412.687 103.717C412.428 103.898 412.228 104.152 412.113 104.446C411.997 104.741 411.971 105.063 412.037 105.372C412.104 105.681 412.26 105.964 412.487 106.185C412.713 106.406 413 106.555 413.31 106.614C413.621 106.672 413.942 106.638 414.234 106.516C414.525 106.393 414.774 106.187 414.949 105.923C415.124 105.66 415.217 105.351 415.218 105.034C415.218 104.82 415.175 104.607 415.091 104.409C415.008 104.212 414.886 104.033 414.732 103.883C414.579 103.733 414.397 103.615 414.197 103.537C413.997 103.458 413.784 103.421 413.569 103.426Z" fill="#263238"/>
<path d="M427.952 108.62C427.249 108.622 426.561 108.415 425.976 108.025C425.39 107.636 424.934 107.081 424.663 106.432C424.393 105.783 424.322 105.068 424.458 104.378C424.594 103.688 424.932 103.054 425.429 102.556C425.925 102.059 426.558 101.719 427.248 101.582C427.938 101.444 428.653 101.514 429.302 101.782C429.952 102.051 430.508 102.507 430.899 103.091C431.289 103.676 431.498 104.363 431.498 105.066C431.498 106.007 431.125 106.91 430.46 107.576C429.795 108.243 428.893 108.618 427.952 108.62ZM427.952 103.426C427.634 103.426 427.323 103.521 427.059 103.697C426.795 103.874 426.588 104.125 426.467 104.419C426.345 104.713 426.313 105.036 426.375 105.348C426.437 105.66 426.59 105.946 426.815 106.171C427.04 106.396 427.327 106.549 427.639 106.611C427.951 106.673 428.274 106.642 428.568 106.52C428.862 106.398 429.113 106.192 429.289 105.928C429.466 105.663 429.56 105.352 429.56 105.034C429.55 104.611 429.377 104.208 429.078 103.908C428.779 103.609 428.376 103.436 427.952 103.426Z" fill="#263238"/>
<path d="M414.423 90.8271H412.518V102.759H414.423V90.8271Z" fill="#263238"/>
<path d="M429.24 103.209H427.334V93.2639C427.332 92.1621 426.893 91.1061 426.114 90.327C425.335 89.5479 424.279 89.1093 423.178 89.1072H420.701V87.2339H423.178C424.785 87.236 426.325 87.8754 427.462 89.0118C428.598 90.1482 429.238 91.6889 429.24 93.296V103.209Z" fill="#263238"/>
<path d="M422.052 84.6846V91.4623L418.361 88.19L422.052 84.6846Z" fill="#263238"/>
<path d="M144.719 232.814L151.786 227.861C152.139 221.002 155.044 214.524 159.931 209.698C164.818 204.873 171.333 202.05 178.196 201.783C185.058 201.517 191.772 203.827 197.018 208.259C202.264 212.692 205.663 218.926 206.547 225.736C207.43 232.547 205.735 239.442 201.793 245.066C197.851 250.69 191.949 254.637 185.246 256.13C178.542 257.624 171.523 256.556 165.566 253.137C159.61 249.718 155.148 244.195 153.056 237.654L144.719 232.814Z" fill="white"/>
<path d="M144.719 232.814L145.282 233.119L146.89 234.044L153.096 237.59L152.968 237.67C152.967 237.659 152.968 237.647 152.971 237.637C152.975 237.626 152.981 237.616 152.988 237.608C152.996 237.599 153.005 237.593 153.015 237.588C153.026 237.584 153.037 237.581 153.048 237.582C153.067 237.581 153.085 237.587 153.101 237.597C153.116 237.607 153.129 237.621 153.137 237.638C154.553 242.004 157.041 245.945 160.373 249.103C161.397 250.083 162.5 250.978 163.669 251.78C164.929 252.616 166.245 253.363 167.609 254.015C172 256.085 176.864 256.947 181.699 256.511C186.534 256.075 191.165 254.358 195.116 251.535C199.066 248.713 202.192 244.889 204.171 240.456C206.151 236.023 206.913 231.143 206.378 226.317C205.897 221.884 204.325 217.638 201.803 213.96C199.407 210.456 196.241 207.547 192.549 205.454C189.069 203.495 185.196 202.336 181.212 202.061C177.528 201.799 173.829 202.28 170.334 203.476C167.167 204.555 164.226 206.209 161.659 208.356L160.775 209.16C160.472 209.405 160.19 209.674 159.93 209.964L158.387 211.572C157.491 212.678 156.656 213.832 155.886 215.029C153.497 218.916 152.115 223.338 151.866 227.893C151.874 227.914 151.874 227.937 151.866 227.958L146.568 231.552L145.201 232.492L144.719 232.814L145.153 232.492L146.488 231.552L151.738 227.813V227.877C151.951 223.283 153.32 218.817 155.717 214.893C156.486 213.68 157.324 212.512 158.226 211.395L159.786 209.739C160.032 209.45 160.301 209.181 160.59 208.935L161.482 208.131C166.988 203.503 174.078 201.197 181.253 201.699C185.291 201.975 189.218 203.145 192.75 205.124C196.496 207.24 199.709 210.185 202.14 213.735C204.682 217.465 206.264 221.765 206.747 226.253C206.83 226.807 206.873 227.366 206.876 227.925L206.94 229.59L206.844 231.246C206.831 231.799 206.777 232.349 206.683 232.894C206.595 233.433 206.514 233.98 206.426 234.502C206.332 235.044 206.208 235.581 206.056 236.11C205.911 236.633 205.799 237.171 205.63 237.718L205.075 239.238C203.573 243.18 201.179 246.722 198.08 249.585C195.271 252.18 191.955 254.166 188.341 255.419C184.727 256.671 180.893 257.162 177.08 256.861C173.747 256.598 170.491 255.726 167.472 254.289C166.076 253.634 164.732 252.873 163.452 252.013C162.28 251.196 161.173 250.29 160.139 249.304C156.788 246.108 154.299 242.118 152.903 237.702H153.072C153.073 237.713 153.072 237.725 153.069 237.735C153.065 237.746 153.059 237.756 153.052 237.764C153.044 237.773 153.035 237.779 153.025 237.784C153.014 237.788 153.003 237.791 152.992 237.791H152.944L146.737 234.116L145.129 233.176L144.719 232.814Z" fill="#263238"/>
<path d="M169.529 229.694L172.367 226.856L177.843 231.72L188.584 221.381L191.221 224.219L177.441 237.196L169.529 229.694Z" fill="#263238"/>
<path d="M507.59 330.934H186.473V331.738H507.59V330.934Z" fill="#263238"/>
<path d="M350.255 164.603H270.779V165.407H350.255V164.603Z" fill="#263238"/>
<path d="M544.357 330.934H525.6V331.738H544.357V330.934Z" fill="#263238"/>
<path d="M520.358 330.934H510.541V331.738H520.358V330.934Z" fill="#263238"/>
<path d="M253.06 178.021H252.256V310.046H253.06V178.021Z" fill="#263238"/>
<path d="M460.491 301.7H459.687V292.052H460.491V301.7ZM459.446 282.469C459.011 279.326 457.982 276.295 456.415 273.536L457.114 273.134C458.732 275.985 459.794 279.117 460.242 282.364L459.446 282.469ZM450.321 266.333C447.857 264.328 445.036 262.808 442.007 261.854L442.248 261.09C445.375 262.07 448.286 263.636 450.827 265.705L450.321 266.333ZM432.633 260.705H422.985V259.901H432.633V260.705ZM413.337 260.705H403.689V259.901H413.337V260.705ZM394.041 260.705C390.766 260.629 387.536 259.933 384.521 258.654L384.835 257.915C387.759 259.152 390.89 259.826 394.065 259.901L394.041 260.705ZM376.385 253.259C374.041 250.969 372.153 248.254 370.821 245.26L371.553 244.938C372.848 247.835 374.679 250.462 376.948 252.681L376.385 253.259ZM368.586 235.781C368.586 235.403 368.586 235.017 368.586 234.631V226.076H369.39V234.591C369.39 234.968 369.39 235.338 369.39 235.708L368.586 235.781ZM369.39 216.485H368.586V206.837H369.39V216.485ZM369.39 197.189H368.586V187.541H369.39V197.189Z" fill="#263238"/>
<path d="M285.629 142.574H205.374C194.34 142.574 185.395 151.517 185.395 162.549C185.395 173.581 194.34 182.524 205.374 182.524H285.629C296.664 182.524 305.609 173.581 305.609 162.549C305.609 151.517 296.664 142.574 285.629 142.574Z" fill="url(#paint0_linear_551_27998)"/>
<path d="M213.246 161.966C213.246 163.574 212.048 164.539 210.143 164.539H208.929V166.364H206.959V159.385H210.175C212.048 159.385 213.246 160.374 213.246 161.966ZM211.252 161.966C211.252 161.323 210.842 160.945 210.022 160.945H208.929V162.987H210.022C210.842 162.987 211.252 162.609 211.252 161.966Z" fill="white"/>
<path d="M214.064 163.252V159.385H216.042V163.212C216.042 164.402 216.533 164.885 217.361 164.885C218.189 164.885 218.679 164.402 218.679 163.212V159.401H220.617V163.269C220.656 163.706 220.598 164.146 220.447 164.558C220.296 164.97 220.055 165.343 219.742 165.651C219.429 165.958 219.051 166.193 218.637 166.337C218.222 166.481 217.781 166.532 217.345 166.485C215.278 166.501 214.064 165.335 214.064 163.252Z" fill="white"/>
<path d="M221.953 159.385H223.923V164.82H227.251V166.388H221.953V159.385Z" fill="white"/>
<path d="M228.029 159.385H229.999V164.82H233.328V166.388H228.029V159.385Z" fill="white"/>
<path d="M240.049 164.507H238.972V166.364H237.002V159.385H240.218C242.123 159.385 243.321 160.374 243.321 161.966C243.339 162.428 243.219 162.884 242.975 163.277C242.732 163.669 242.376 163.98 241.955 164.169L243.458 166.364H241.344L240.049 164.507ZM240.049 160.945H238.956V162.987H240.049C240.853 162.987 241.279 162.609 241.279 161.966C241.279 161.323 240.885 160.945 240.065 160.945H240.049Z" fill="white"/>
<path d="M249.972 164.821V166.348H244.344V159.37H249.819V160.897H246.297V162.071H249.393V163.55H246.297V164.821H249.972Z" fill="white"/>
<path d="M258.8 167.168C258.564 167.454 258.267 167.681 257.929 167.833C257.592 167.985 257.224 168.058 256.854 168.045C255.712 168.045 254.965 167.659 253.799 166.437C252.935 166.323 252.143 165.897 251.571 165.24C250.999 164.582 250.688 163.738 250.695 162.867C250.759 161.882 251.195 160.959 251.915 160.284C252.634 159.609 253.584 159.233 254.571 159.233C255.557 159.233 256.507 159.609 257.227 160.284C257.947 160.959 258.383 161.882 258.446 162.867C258.454 163.606 258.23 164.33 257.804 164.934C257.378 165.539 256.773 165.994 256.074 166.236C256.17 166.357 256.292 166.456 256.432 166.524C256.571 166.592 256.723 166.628 256.878 166.63C257.077 166.624 257.273 166.578 257.454 166.495C257.635 166.412 257.797 166.294 257.931 166.147L258.8 167.168ZM254.571 164.869C254.969 164.891 255.365 164.794 255.707 164.589C256.05 164.384 256.323 164.081 256.491 163.719C256.659 163.357 256.715 162.954 256.652 162.56C256.588 162.166 256.407 161.8 256.134 161.51C255.86 161.22 255.505 161.018 255.116 160.932C254.726 160.845 254.319 160.878 253.949 161.025C253.578 161.172 253.259 161.427 253.035 161.756C252.81 162.086 252.69 162.476 252.689 162.875C252.672 163.132 252.707 163.39 252.794 163.632C252.881 163.875 253.017 164.097 253.194 164.284C253.37 164.471 253.584 164.62 253.821 164.721C254.058 164.821 254.313 164.872 254.571 164.869Z" fill="white"/>
<path d="M259.42 163.252V159.385H261.39V163.212C261.39 164.402 261.888 164.885 262.716 164.885C263.544 164.885 264.035 164.402 264.035 163.212V159.401H265.973V163.269C266.012 163.706 265.954 164.146 265.802 164.558C265.651 164.97 265.41 165.343 265.097 165.651C264.784 165.958 264.407 166.193 263.992 166.337C263.578 166.481 263.137 166.532 262.7 166.485C260.634 166.501 259.42 165.335 259.42 163.252Z" fill="white"/>
<path d="M272.901 164.821V166.348H267.273V159.37H272.741V160.897H269.259V162.071H272.355V163.55H269.259V164.821H272.901Z" fill="white"/>
<path d="M273.512 165.737L274.155 164.282C274.843 164.719 275.639 164.956 276.454 164.965C277.258 164.965 277.596 164.74 277.596 164.402C277.596 163.293 273.632 164.097 273.632 161.508C273.632 160.262 274.645 159.249 276.72 159.249C277.599 159.234 278.468 159.445 279.244 159.86L278.641 161.323C278.05 160.985 277.384 160.8 276.704 160.784C275.9 160.784 275.578 161.058 275.578 161.411C275.578 162.473 279.534 161.677 279.534 164.25C279.534 165.464 278.521 166.501 276.446 166.501C275.416 166.528 274.398 166.263 273.512 165.737Z" fill="white"/>
<path d="M281.826 160.953H279.688V159.385H285.927V160.953H283.812V166.364H281.842L281.826 160.953Z" fill="white"/>
<path d="M380.679 351.847H345.537C344.386 351.862 343.277 351.42 342.453 350.618C341.628 349.816 341.156 348.719 341.139 347.569V300.262C341.156 299.112 341.628 298.016 342.453 297.214C343.277 296.412 344.386 295.97 345.537 295.985H367.823L385.117 313.279V347.569C385.109 348.142 384.987 348.708 384.759 349.234C384.531 349.759 384.202 350.235 383.789 350.632C383.377 351.03 382.889 351.342 382.356 351.55C381.822 351.759 381.252 351.859 380.679 351.847Z" fill="#455A64"/>
<g opacity="0.2">
<path d="M367.822 295.985V309.299C367.827 309.83 367.938 310.354 368.147 310.842C368.356 311.33 368.659 311.771 369.039 312.141C369.42 312.511 369.87 312.802 370.363 312.998C370.857 313.193 371.384 313.288 371.915 313.279H385.116L367.822 295.985Z" fill="white"/>
</g>
<g opacity="0.2">
<path d="M368.007 310.465C368.007 310.465 367.83 313.681 371.609 314.758L372.043 314.855C373.764 315.152 385.076 317.106 385.076 316.857V313.279H371.915C371.915 313.279 368.626 313.166 368.007 310.465Z" fill="black"/>
</g>
<g opacity="0.3">
<path d="M341.137 334.239H385.116V348.646C385.116 349.499 384.777 350.317 384.174 350.92C383.571 351.524 382.753 351.862 381.9 351.862H344.337C343.484 351.862 342.666 351.524 342.063 350.92C341.46 350.317 341.121 349.499 341.121 348.646V334.239H341.137Z" fill="black"/>
</g>
<path d="M358.913 318.641L353.639 321.053L358.913 323.465V325.958L351.348 322.404V319.815L358.889 316.213L358.913 318.641Z" fill="white"/>
<path d="M367.428 323.505L372.702 321.093L367.428 318.681V316.189L374.969 319.791V322.404L367.428 325.974V323.505Z" fill="white"/>
<path d="M362.749 313.721L365.08 313.673L363.312 328.684L360.996 328.627L362.749 313.721Z" fill="white"/>
<path d="M279.052 351.847H243.91C242.759 351.862 241.65 351.42 240.826 350.618C240.001 349.816 239.529 348.719 239.512 347.569V300.262C239.529 299.112 240.001 298.016 240.826 297.214C241.65 296.412 242.759 295.97 243.91 295.985H266.196L283.45 313.279V347.569C283.433 348.719 282.961 349.816 282.136 350.618C281.312 351.42 280.203 351.862 279.052 351.847Z" fill="#455A64"/>
<g opacity="0.2">
<path d="M266.199 295.984V309.299C266.204 309.829 266.314 310.352 266.523 310.84C266.731 311.327 267.034 311.768 267.414 312.138C267.793 312.508 268.242 312.799 268.735 312.995C269.227 313.191 269.754 313.287 270.284 313.278H283.453L266.199 295.984Z" fill="white"/>
</g>
<g opacity="0.2">
<path d="M266.372 310.465C266.372 310.465 266.203 313.681 269.982 314.758C270.119 314.798 270.272 314.823 270.416 314.855C272.129 315.152 283.449 317.106 283.449 316.857V313.279H270.28C270.28 313.279 266.999 313.166 266.372 310.465Z" fill="black"/>
</g>
<g opacity="0.3">
<path d="M239.512 334.239H283.451V348.647C283.451 349.5 283.112 350.318 282.509 350.921C281.906 351.524 281.088 351.863 280.235 351.863H242.712C241.859 351.863 241.041 351.524 240.438 350.921C239.835 350.318 239.496 349.5 239.496 348.647V334.239H239.512Z" fill="black"/>
</g>
<path d="M257.282 318.641L252.007 321.053L257.282 323.465V325.958L249.748 322.404V319.815L257.29 316.213L257.282 318.641Z" fill="white"/>
<path d="M265.779 323.505L271.054 321.093L265.779 318.681V316.189L273.321 319.791V322.404L265.779 326.014V323.505Z" fill="white"/>
<path d="M261.124 313.721L263.448 313.673L261.679 328.684L259.363 328.627L261.124 313.721Z" fill="white"/>
<path d="M384.585 201.611H350.817C349.712 201.626 348.645 201.202 347.853 200.432C347.06 199.662 346.605 198.608 346.588 197.503V152.013C346.605 150.907 347.06 149.854 347.853 149.084C348.645 148.313 349.712 147.889 350.817 147.904L375.476 148.33L388.838 164.531V197.495C388.831 198.045 388.715 198.588 388.497 199.093C388.279 199.598 387.963 200.055 387.568 200.438C387.172 200.82 386.705 201.121 386.194 201.322C385.682 201.524 385.135 201.622 384.585 201.611Z" fill="#455A64"/>
<g opacity="0.3">
<path d="M346.566 184.688H388.816V198.42C388.816 199.273 388.477 200.091 387.874 200.694C387.271 201.297 386.453 201.636 385.6 201.636H349.741C348.888 201.636 348.07 201.297 347.467 200.694C346.864 200.091 346.525 199.273 346.525 198.42V184.688H346.566Z" fill="black"/>
</g>
<path d="M363.658 169.693L358.585 172.056L363.658 174.38V176.792L356.422 173.327V170.842L363.658 167.369V169.693Z" fill="white"/>
<path d="M371.826 174.364L376.891 172.024L371.826 169.708V167.296L379.062 170.77V173.254L371.826 176.719V174.364Z" fill="white"/>
<path d="M367.349 164.965L369.584 164.909L367.887 179.381L365.66 179.292L367.349 164.965Z" fill="white"/>
<path d="M385.544 167.682C392.431 167.682 398.014 162.099 398.014 155.212C398.014 148.325 392.431 142.742 385.544 142.742C378.657 142.742 373.074 148.325 373.074 155.212C373.074 162.099 378.657 167.682 385.544 167.682Z" fill="white"/>
<path d="M397.982 155.212C397.898 154.194 397.739 153.184 397.507 152.189C397.212 151.029 396.743 149.921 396.117 148.901C394.644 146.445 392.36 144.58 389.659 143.628C386.959 142.675 384.011 142.695 381.323 143.683C379.045 144.515 377.064 146.003 375.631 147.96C374.087 150.057 373.254 152.593 373.254 155.196C373.254 157.8 374.087 160.335 375.631 162.432C377.064 164.389 379.045 165.877 381.323 166.71C384.012 167.685 386.956 167.698 389.653 166.747C392.351 165.795 394.635 163.938 396.117 161.492C396.743 160.472 397.212 159.363 397.507 158.203C397.739 157.208 397.898 156.198 397.982 155.18C397.991 155.247 397.991 155.314 397.982 155.381C397.982 155.542 397.982 155.735 397.982 155.976C397.983 156.299 397.956 156.622 397.901 156.941C397.858 157.38 397.78 157.816 397.668 158.243C397.397 159.43 396.941 160.567 396.318 161.612C394.832 164.146 392.507 166.081 389.744 167.079C386.982 168.078 383.957 168.078 381.194 167.079C380.042 166.671 378.958 166.091 377.978 165.359C376.944 164.614 376.037 163.707 375.293 162.673C373.685 160.506 372.816 157.879 372.816 155.18C372.816 152.481 373.685 149.854 375.293 147.687C375.673 147.168 376.09 146.676 376.539 146.216C376.991 145.779 377.472 145.373 377.978 145.002C378.956 144.266 380.04 143.686 381.194 143.281C383.324 142.517 385.62 142.336 387.843 142.758C389.613 143.093 391.291 143.804 392.762 144.843C394.234 145.882 395.465 147.225 396.374 148.78C396.998 149.826 397.454 150.962 397.725 152.149C397.837 152.576 397.915 153.012 397.958 153.452C398.012 153.77 398.039 154.093 398.038 154.416C398.038 154.658 398.038 154.851 398.038 155.011C398.028 155.08 398.009 155.148 397.982 155.212Z" fill="#263238"/>
<path d="M379.393 156.29L381.081 154.593L384.345 157.496L390.745 151.337L392.313 153.025L384.096 160.752L379.393 156.29Z" fill="url(#paint1_linear_551_27998)"/>
<path d="M482.312 351.847H447.169C446.019 351.862 444.91 351.42 444.086 350.618C443.261 349.816 442.788 348.719 442.771 347.569V300.262C442.788 299.112 443.261 298.016 444.086 297.214C444.91 296.412 446.019 295.97 447.169 295.985H469.456L486.71 313.279V347.569C486.693 348.719 486.221 349.816 485.396 350.618C484.571 351.42 483.462 351.862 482.312 351.847Z" fill="#455A64"/>
<g opacity="0.2">
<path d="M469.457 295.984V309.299C469.462 309.829 469.572 310.352 469.781 310.84C469.989 311.327 470.292 311.768 470.671 312.138C471.051 312.508 471.5 312.799 471.992 312.995C472.485 313.191 473.011 313.287 473.541 313.278H486.711L469.457 295.984Z" fill="white"/>
</g>
<g opacity="0.2">
<path d="M469.634 310.465C469.634 310.465 469.465 313.681 473.244 314.758C473.381 314.798 473.525 314.823 473.678 314.855C475.391 315.152 486.711 317.106 486.711 316.857V313.279H473.557C473.557 313.279 470.261 313.166 469.634 310.465Z" fill="black"/>
</g>
<g opacity="0.3">
<path d="M442.772 334.239H486.711V348.647C486.711 349.5 486.372 350.318 485.769 350.921C485.165 351.524 484.347 351.863 483.495 351.863H445.972C445.119 351.863 444.301 351.524 443.698 350.921C443.095 350.318 442.756 349.5 442.756 348.647V334.239H442.772Z" fill="black"/>
</g>
<path d="M460.549 318.641L455.275 321.053L460.549 323.465V325.958L453.008 322.404V319.815L460.549 316.213V318.641Z" fill="white"/>
<path d="M469.039 323.505L474.313 321.093L469.039 318.681V316.189L476.581 319.791V322.404L469.039 326.014V323.505Z" fill="white"/>
<path d="M464.382 313.721L466.705 313.673L464.937 328.684L462.621 328.627L464.382 313.721Z" fill="white"/>
<path d="M494.822 42.8773C493.072 42.6311 491.289 42.8483 489.649 43.5072C488.01 44.1661 486.572 45.2435 485.479 46.632C484.252 46.3613 482.973 46.4509 481.796 46.8901C480.618 47.3292 479.593 48.0993 478.843 49.1075C478.093 50.1158 477.65 51.3192 477.568 52.5731C477.486 53.8271 477.768 55.078 478.38 56.1755C477.483 56.8141 476.743 57.6491 476.217 58.6169C475.692 59.5846 475.394 60.6597 475.347 61.76C475.299 62.8603 475.504 63.9569 475.944 64.9662C476.385 65.9755 477.05 66.8709 477.89 67.5842L502.645 49.2369C502.012 47.5844 500.957 46.1272 499.584 45.011C498.211 43.8949 496.569 43.1591 494.822 42.8773Z" fill="#263238"/>
<path d="M477.705 68.7578C478.528 62.4622 481.692 56.7074 486.567 52.6399C491.442 48.5723 497.671 46.4903 504.012 46.8086L505.314 46.873C519.36 48.3925 525.921 61.1761 524.007 75.1738L519.633 121.991L519.4 124.266L486.565 129.17L487.208 117.207C487.208 117.207 473.765 114.433 474.272 100.878C474.513 94.3331 476.113 80.8982 477.705 68.7578Z" fill="#AE7461"/>
<path d="M487.097 117.183C493.386 117.498 499.633 116.002 505.098 112.874C505.098 112.874 500.443 122.409 486.992 120.52L487.097 117.183Z" fill="#6F4439"/>
<path d="M481.314 81.2686C481.283 81.7723 481.449 82.2684 481.778 82.6513C482.107 83.0342 482.572 83.2737 483.075 83.3188C483.317 83.3503 483.564 83.3337 483.8 83.27C484.036 83.2062 484.257 83.0964 484.45 82.9471C484.643 82.7977 484.806 82.6116 484.927 82.3994C485.048 82.1873 485.127 81.9532 485.157 81.7108C485.184 81.4557 485.159 81.1979 485.085 80.9526C485.01 80.7073 484.887 80.4794 484.723 80.2823C484.559 80.0852 484.357 79.923 484.129 79.8052C483.901 79.6874 483.652 79.6163 483.397 79.5962C483.149 79.5638 482.898 79.5818 482.658 79.6491C482.417 79.7165 482.193 79.8317 481.999 79.988C481.804 80.1442 481.643 80.3382 481.525 80.5583C481.408 80.7784 481.336 81.02 481.314 81.2686Z" fill="#263238"/>
<path d="M480.284 75.5275C480.51 75.7929 482.029 74.7798 484.111 74.8924C486.194 75.0049 487.665 76.1145 487.906 75.8733C488.019 75.7687 487.802 75.3024 487.159 74.7798C486.288 74.1111 485.232 73.729 484.136 73.6864C483.055 73.6235 481.983 73.905 481.072 74.4904C480.413 74.9647 480.172 75.415 480.284 75.5275Z" fill="#263238"/>
<path d="M500.681 82.8121C500.65 83.315 500.817 83.8101 501.146 84.1918C501.475 84.5734 501.94 84.8111 502.442 84.8542C502.685 84.8858 502.931 84.8692 503.167 84.8054C503.403 84.7417 503.624 84.6319 503.817 84.4825C504.011 84.3332 504.173 84.1471 504.294 83.9349C504.415 83.7227 504.494 83.4887 504.525 83.2462C504.554 82.7417 504.385 82.2456 504.055 81.863C503.725 81.4803 503.259 81.2411 502.756 81.196C502.513 81.1646 502.267 81.1815 502.031 81.2459C501.795 81.3103 501.574 81.4208 501.381 81.5711C501.188 81.7214 501.027 81.9085 500.907 82.1215C500.787 82.3345 500.71 82.5692 500.681 82.8121Z" fill="#263238"/>
<path d="M500.724 76.935C500.949 77.2003 502.468 76.1873 504.551 76.2998C506.633 76.4124 508.104 77.5219 508.345 77.2807C508.458 77.1682 508.241 76.7018 507.598 76.1873C506.726 75.5203 505.671 75.1359 504.575 75.0858C503.494 75.0229 502.422 75.3044 501.511 75.8898C500.892 76.3802 500.611 76.8144 500.724 76.935Z" fill="#263238"/>
<path d="M492.402 91.9937C492.402 91.8731 491.139 91.5836 489.057 91.1897C488.526 91.1093 488.028 90.9806 487.955 90.6108C487.94 90.059 488.091 89.5154 488.39 89.051L490.158 85.0873C492.627 79.4593 494.444 74.772 494.219 74.6353C493.994 74.4986 491.807 79.0412 489.33 84.6934L487.626 88.7134C487.235 89.353 487.092 90.114 487.224 90.852C487.291 91.0367 487.398 91.2044 487.537 91.3433C487.675 91.4822 487.843 91.589 488.028 91.656C488.316 91.7529 488.616 91.8097 488.92 91.8248C491.083 92.0339 492.386 92.1062 492.402 91.9937Z" fill="#263238"/>
<path d="M498.481 93.7384C498.143 93.7384 498.022 95.9574 496.012 97.4689C494.002 98.9805 491.606 98.6026 491.574 98.9161C491.574 99.0608 492.089 99.3824 493.102 99.4628C494.424 99.5476 495.734 99.1633 496.8 98.3774C497.824 97.6208 498.516 96.4971 498.73 95.2418C498.834 94.3012 498.609 93.7303 498.481 93.7384Z" fill="#263238"/>
<path d="M500.587 68.7503C500.764 69.3292 502.863 69.1604 505.283 69.5543C507.703 69.9483 509.656 70.7362 510.002 70.2458C510.163 70.0046 509.841 69.4418 509.078 68.8709C508.051 68.1372 506.867 67.6552 505.62 67.4639C504.379 67.2501 503.105 67.3384 501.906 67.7212C500.989 68.0589 500.515 68.477 500.587 68.7503Z" fill="#263238"/>
<path d="M481.345 69.5461C481.691 70.0365 483.146 69.6184 484.875 69.6827C486.603 69.7471 488.042 70.1571 488.404 69.6827C488.565 69.4496 488.356 68.9672 487.737 68.4928C486.921 67.8841 485.933 67.5492 484.915 67.5361C483.9 67.5015 482.9 67.7824 482.052 68.3401C481.425 68.8305 481.2 69.3049 481.345 69.5461Z" fill="#263238"/>
<path d="M479.313 62.6154C479.313 62.6154 483.333 54.31 487.497 52.5332C492.563 50.3865 494.428 55.9261 499.212 54.8407C503.995 53.7553 508.86 51.689 513.475 55.5804C518.556 59.8335 515.943 62.5108 515.967 68.5328C516.08 92.9583 520.188 100.074 522.021 88.6328C522.222 87.3866 525.76 86.5585 526.54 81.2762C527.553 74.4181 528.236 66.0726 526.942 61.1039C525.848 56.9231 523.645 53.9563 519.585 50.6117C513.153 45.3294 504.06 44.7666 497.821 45.0882C491.582 45.4098 479.28 51.9704 479.313 62.6154Z" fill="#263238"/>
<path d="M521.176 88.247C521.218 87.7513 521.359 87.2691 521.592 86.8297C521.825 86.3902 522.145 86.0024 522.532 85.6899C522.919 85.3773 523.365 85.1464 523.844 85.011C524.322 84.8757 524.823 84.8387 525.317 84.9023C527.833 85.2722 530.575 86.84 530.141 92.0499C529.385 101.296 520.26 98.6347 520.268 98.3613C520.276 98.0879 520.822 92.1142 521.176 88.247Z" fill="#AE7461"/>
<path d="M522.599 95.0489C522.648 95.0489 522.752 95.1776 523.017 95.3223C523.385 95.5188 523.814 95.5649 524.215 95.4509C525.22 95.1695 526.169 93.6902 526.354 92.0259C526.438 91.2333 526.347 90.432 526.089 89.6782C526.026 89.3825 525.892 89.1065 525.699 88.874C525.505 88.6415 525.258 88.4594 524.979 88.3436C524.797 88.2755 524.597 88.2754 524.415 88.3434C524.234 88.4114 524.083 88.5428 523.99 88.7134C523.845 88.9626 523.894 89.1476 523.845 89.1636C523.797 89.1797 523.653 88.9868 523.765 88.6169C523.831 88.3891 523.977 88.1924 524.175 88.0622C524.445 87.8919 524.771 87.8342 525.084 87.9014C525.461 88.0099 525.804 88.2155 526.078 88.4976C526.351 88.7797 526.546 89.1285 526.643 89.5094C526.977 90.3402 527.098 91.2409 526.997 92.1304C526.78 93.9957 525.687 95.66 524.32 95.9333C524.066 95.9868 523.803 95.982 523.551 95.9193C523.299 95.8566 523.064 95.7377 522.865 95.5715C522.599 95.274 522.535 95.065 522.599 95.0489Z" fill="#6F4439"/>
<path d="M524.667 72.6012C523.393 73.532 521.906 74.129 520.342 74.3378C518.734 74.4182 517.029 73.4293 516.844 71.8696C516.756 71.1701 516.965 70.3741 516.539 69.8113C516.113 69.2485 515.003 69.2968 514.127 69.345C512.655 69.387 511.214 68.9229 510.043 68.0304C508.873 67.1378 508.044 65.8707 507.695 64.4406C506.891 65.518 505.178 65.3813 504.093 64.6014C503.007 63.8215 502.348 62.6075 501.52 61.5623C500.692 60.5171 499.502 59.5523 498.175 59.6729C497.436 59.7452 496.72 60.1472 495.98 60.0427C494.678 59.8658 494.115 58.298 493.978 56.9875C493.842 55.677 493.761 54.1494 492.692 53.3856C491.623 52.6218 490.344 52.9916 489.122 53.1122C487.9 53.2328 486.365 52.871 486.115 51.6731C486.081 51.3534 486.111 51.0301 486.204 50.7222C486.296 50.4143 486.449 50.128 486.654 49.8802C487.528 48.7018 488.777 47.8555 490.196 47.4801C491.614 47.1046 493.118 47.2223 494.461 47.8139C495.06 46.1914 496.114 44.7761 497.498 43.7379C498.881 42.6997 500.534 42.0827 502.26 41.9608C505.693 41.7678 508.893 40.7869 510.388 43.8904C512.591 42.0814 515.96 44.4532 518.709 45.225C520.082 45.6241 521.341 46.3419 522.383 47.32C523.425 48.298 524.222 49.5086 524.707 50.853C525.949 50.5798 527.245 50.6811 528.429 51.1439C529.614 51.6068 530.635 52.4105 531.363 53.4534C532.091 54.4963 532.493 55.7317 532.519 57.0033C532.545 58.2749 532.194 59.5256 531.509 60.5975C533.254 61.707 534.725 63.5723 534.637 65.6386C534.548 67.7048 532.458 69.6586 530.488 69.0234C530.807 69.8507 530.807 70.7669 530.489 71.5945C530.171 72.4221 529.557 73.1021 528.766 73.5026C527.975 73.9031 527.063 73.9956 526.208 73.7622C525.353 73.5288 524.614 72.9862 524.136 72.2394" fill="#263238"/>
<path d="M549.486 202.608L576.822 196.707C576.822 196.707 573.075 176.14 568.412 155.285C564.69 138.65 546.31 134.035 546.31 134.035L525.012 124.62L522.142 113.565C510.436 119.354 499.075 124.925 492.225 127.715L485.954 120.785L483.293 129.106L481.05 129.339C481.05 129.339 471.78 132.153 470.847 132.226C462.365 132.901 451.302 142.396 447.161 152.326C445.448 156.434 438.816 181.004 433.959 206.443C430.438 224.847 428.404 242.711 427.527 245.132L454.863 245.188L461.167 206.443L463.016 245.405L556.063 245.115L549.446 205.961L549.486 202.608Z" fill="url(#paint2_linear_551_27998)"/>
<path d="M457.09 160.664C457.009 160.664 457.781 170.923 458.818 183.561C459.855 196.2 460.764 206.443 460.852 206.435C460.941 206.427 460.161 196.176 459.124 183.537C458.087 170.898 457.178 160.656 457.09 160.664Z" fill="#263238"/>
<path d="M525.011 124.965L497.345 138.859L492.191 127.603C492.191 127.603 501.453 123.583 509.879 119.128C518.474 114.546 521.819 113.573 521.819 113.573" fill="#E0E0E0"/>
<path d="M485.655 120.793L491.927 127.715L486.274 137.798L482.994 129.114" fill="#E0E0E0"/>
<path d="M552.26 137.886C552.308 137.943 551.391 138.69 550.097 139.985C546.72 143.474 544.379 147.833 543.335 152.575C542.941 154.384 542.845 155.534 542.772 155.534C542.735 155.267 542.735 154.997 542.772 154.73C542.812 153.991 542.901 153.255 543.038 152.527C543.923 147.664 546.32 143.204 549.888 139.784C550.418 139.267 550.982 138.786 551.576 138.345C551.778 138.156 552.009 138.001 552.26 137.886Z" fill="#263238"/>
<path d="M492.224 127.603C492.28 127.603 491.612 128.664 490.616 130.353C489.619 132.041 488.268 134.421 486.99 137.138C486.885 137.364 486.789 137.589 486.692 137.79L486.491 138.224L486.29 137.798C485.245 135.612 484.348 133.358 483.605 131.052C483.331 130.176 483.13 129.444 483.01 128.962C482.92 128.703 482.874 128.431 482.873 128.158C482.929 128.158 483.275 129.211 483.894 130.94C484.513 132.668 485.446 135.024 486.668 137.589H486.274L486.571 136.929C487.669 134.592 488.926 132.332 490.334 130.168C490.873 129.364 491.339 128.68 491.669 128.238C491.824 128.002 492.011 127.789 492.224 127.603Z" fill="#263238"/>
<path d="M522.6 126.228C522.466 126.27 522.337 126.324 522.214 126.389L521.144 126.895L517.245 128.801L504.381 135.193L497.322 138.746L497.515 138.819L493.752 130.73C493.294 129.766 492.948 128.994 492.651 128.431L492.353 127.82C492.321 127.748 492.281 127.681 492.232 127.619C492.247 127.698 492.274 127.774 492.313 127.844L492.57 128.463L493.599 130.803C494.508 132.821 495.778 135.627 497.257 138.931L497.322 139.06L497.45 138.996L504.518 135.466L517.309 128.994L521.168 127L522.214 126.445C522.351 126.39 522.481 126.317 522.6 126.228Z" fill="#263238"/>
<path d="M573.829 182.588C573.829 182.588 579.505 210.013 579.963 216.356C580.872 228.778 574.914 236.223 569.294 239.753C563.457 243.411 530.517 245.14 530.517 245.14L528.523 225.442L549.934 212.473L547.032 190.025L573.829 182.588Z" fill="url(#paint3_linear_551_27998)"/>
<path d="M549.814 211.717C549.81 211.567 549.797 211.416 549.774 211.267C549.726 210.945 549.67 210.519 549.589 209.981C549.42 208.831 549.179 207.223 548.882 205.253C548.247 201.233 547.386 195.734 546.43 189.664C544.548 177.789 543.214 169.234 542.94 167.626C542.926 167.776 542.926 167.926 542.94 168.076C542.94 168.382 543.013 168.816 543.077 169.371C543.214 170.496 543.439 172.112 543.728 174.114C544.307 178.134 545.151 183.626 546.14 189.712C547.129 195.798 548.005 201.306 548.681 205.285C549.01 207.247 549.292 208.855 549.485 209.997C549.581 210.527 549.662 210.954 549.718 211.275C549.736 211.425 549.768 211.573 549.814 211.717Z" fill="#263238"/>
<path d="M571.065 238.611C571.004 238.648 570.948 238.691 570.896 238.74C570.751 238.88 570.589 239.001 570.414 239.101C569.746 239.515 569.03 239.847 568.283 240.09C565.517 240.996 562.68 241.668 559.801 242.1C550.101 243.622 540.322 244.577 530.511 244.963L530.672 245.091C530.471 243.154 530.27 241.071 530.053 239.029C529.571 234.253 529.104 229.646 528.67 225.401L528.598 225.538L549.349 213.004L555.339 209.353L556.947 208.365L557.349 208.107L557.485 208.011C557.485 208.011 557.437 208.011 557.341 208.083L556.915 208.324L555.307 209.265L549.269 212.851L528.469 225.289L528.389 225.337V225.425C528.815 229.679 529.281 234.269 529.763 239.093C529.973 241.168 530.182 243.218 530.383 245.156V245.3H530.519C540.339 244.91 550.126 243.922 559.825 242.342C562.711 241.886 565.551 241.181 568.315 240.235C569.064 239.978 569.777 239.626 570.438 239.19C570.61 239.079 570.769 238.95 570.912 238.804C570.969 238.745 571.021 238.68 571.065 238.611Z" fill="#263238"/>
<g opacity="0.3">
<path d="M564.407 204.345C564.206 204.094 563.92 203.925 563.603 203.871C561.995 203.509 560.387 204.088 558.924 204.763C554.496 206.882 550.619 209.997 547.596 213.864L547.966 213.655C552.982 210.689 557.421 207.682 562.799 206.25C563.284 206.16 563.743 205.962 564.142 205.672C564.334 205.516 564.465 205.298 564.513 205.056C564.562 204.814 564.524 204.562 564.407 204.345Z" fill="black"/>
</g>
<path d="M528.822 226.64L526.048 226.897C526.048 226.897 525.687 222.877 525.06 221.317C524.432 219.757 523.259 214.933 523.259 214.933C523.259 214.933 510.853 209.715 510.58 209.715C510.306 209.715 498.174 213.06 498.174 213.06C498.174 213.06 498.447 216.38 502.58 216.565C505.054 216.675 507.532 216.464 509.952 215.938L513.82 217.377L506.085 217.868L492.514 226.004C492.514 226.004 492.602 228.416 497.908 227.17C503.215 225.924 505.948 223.665 505.948 223.665L515.926 225.12L505.37 225.618L497.458 229.574C497.458 229.574 497.523 232.854 500.763 232.042C504.003 231.23 506.174 230.748 506.174 230.748L515.613 231.866L507.613 232.308C507.613 232.308 502.218 232.452 502.491 233.916C502.765 235.379 506.72 236.609 506.72 236.609L512.348 237.606C512.348 237.606 512.557 240.123 513.546 240.927C514.535 241.731 516.063 242.864 516.963 242.88C517.864 242.896 530.535 243.572 530.535 243.572L528.822 226.64Z" fill="#AE7461"/>
<path d="M521.908 238.925C522.08 238.839 522.242 238.734 522.391 238.611C522.798 238.291 523.173 237.93 523.508 237.534C524.626 236.205 525.333 234.579 525.542 232.855C525.656 231.908 525.612 230.949 525.414 230.016C525.229 229.164 524.931 228.408 524.843 227.805C524.756 227.307 524.797 226.795 524.963 226.318C525.035 226.145 525.116 225.976 525.205 225.812C525.053 225.934 524.936 226.095 524.867 226.278C524.651 226.765 524.579 227.303 524.658 227.83C524.722 228.497 525.004 229.237 525.172 230.073C525.351 230.978 525.386 231.906 525.277 232.822C525.07 234.499 524.408 236.086 523.363 237.413C522.912 237.948 522.426 238.453 521.908 238.925Z" fill="#6F4439"/>
<path d="M520.382 237.984C519.012 237.801 517.632 237.707 516.25 237.702C514.874 237.615 513.493 237.615 512.117 237.702C513.485 237.885 514.862 237.979 516.242 237.984C517.621 238.071 519.003 238.071 520.382 237.984Z" fill="#6F4439"/>
<path d="M519.768 232.01C519.044 231.889 518.306 231.856 517.574 231.914C516.841 231.88 516.107 231.934 515.387 232.075C516.108 232.202 516.843 232.237 517.574 232.179C518.309 232.213 519.046 232.156 519.768 232.01Z" fill="#6F4439"/>
<path d="M520.189 218.141C520.189 218.061 518.814 218.294 517.134 218.141C515.453 217.988 514.159 217.49 514.135 217.57C515.055 218.053 516.071 218.328 517.11 218.374C518.141 218.519 519.191 218.439 520.189 218.141Z" fill="#6F4439"/>
<path d="M403.608 186.785L415.491 245.123H518.644C519.191 245.123 519.715 244.907 520.102 244.521C520.489 244.135 520.708 243.612 520.71 243.065C520.71 242.517 520.492 241.992 520.105 241.604C519.717 241.217 519.192 240.999 518.644 240.999H497.885L486.862 186.745C486.76 186.24 486.488 185.786 486.092 185.458C485.695 185.13 485.198 184.949 484.683 184.944L405.851 184.116C405.517 184.111 405.187 184.181 404.883 184.32C404.58 184.459 404.311 184.663 404.096 184.919C403.881 185.174 403.726 185.474 403.642 185.797C403.557 186.12 403.546 186.457 403.608 186.785Z" fill="#E0E0E0"/>
<path d="M403.608 186.785C403.605 186.726 403.605 186.667 403.608 186.608C403.582 186.433 403.582 186.254 403.608 186.078C403.647 185.729 403.765 185.393 403.955 185.097C404.145 184.802 404.4 184.554 404.702 184.373C404.914 184.248 405.144 184.158 405.385 184.108C405.65 184.057 405.92 184.038 406.189 184.052H408.047L412.686 184.092L442.49 184.373L463.265 184.582L474.907 184.703L481.018 184.767H484.137C484.402 184.767 484.652 184.767 484.941 184.767C485.22 184.8 485.492 184.878 485.745 185C486.251 185.252 486.652 185.673 486.879 186.19C486.977 186.451 487.05 186.72 487.096 186.994L487.257 187.798C487.361 188.321 487.466 188.844 487.578 189.406C487.787 190.46 488.004 191.521 488.221 192.622C488.656 194.766 489.095 196.929 489.54 199.111C490.435 203.49 491.346 207.968 492.274 212.545C494.139 221.687 496.068 231.206 498.062 241.007L497.926 240.895H518.339C518.608 240.879 518.878 240.895 519.143 240.943C519.692 241.059 520.176 241.381 520.494 241.843C520.675 242.098 520.799 242.388 520.859 242.695C520.919 243.002 520.913 243.318 520.842 243.622C520.77 243.926 520.635 244.211 520.445 244.459C520.254 244.707 520.014 244.912 519.738 245.059C519.437 245.217 519.105 245.304 518.765 245.317H463.908H415.484H415.395V245.228C411.769 227.291 408.81 212.706 406.76 202.616L404.412 190.862C404.147 189.535 403.946 188.514 403.809 187.822C403.673 187.131 403.617 186.785 403.617 186.785C403.617 186.785 403.697 187.131 403.842 187.814C403.986 188.498 404.195 189.519 404.477 190.854C405.023 193.523 405.836 197.446 406.889 202.495C408.963 212.602 411.946 227.178 415.62 245.107L415.516 245.019H463.941H518.725C519.021 245.006 519.309 244.926 519.569 244.786C519.804 244.654 520.008 244.475 520.168 244.259C520.329 244.043 520.442 243.796 520.5 243.533C520.559 243.271 520.561 242.999 520.507 242.735C520.454 242.472 520.345 242.223 520.188 242.004C519.912 241.598 519.493 241.311 519.015 241.2C518.767 241.162 518.517 241.148 518.267 241.16H497.765V241.047C495.771 231.247 493.841 221.751 491.984 212.586L489.267 199.151C488.827 196.953 488.388 194.788 487.948 192.655C487.731 191.585 487.514 190.524 487.305 189.439C487.2 188.916 487.088 188.385 486.983 187.831L486.822 187.027C486.787 186.772 486.719 186.524 486.621 186.287C486.423 185.825 486.067 185.449 485.616 185.226C485.393 185.113 485.15 185.042 484.901 185.017C484.66 185.017 484.386 185.017 484.097 185.017L480.977 184.976L474.875 184.904L463.233 184.775L442.458 184.526L412.653 184.164L408.006 184.1H406.157C405.888 184.087 405.619 184.103 405.353 184.148C404.896 184.243 404.48 184.48 404.166 184.825C403.851 185.17 403.653 185.606 403.6 186.07C403.568 186.307 403.571 186.548 403.608 186.785Z" fill="#263238"/>
<path d="M451.148 213.486C451.148 214.16 450.948 214.819 450.573 215.38C450.199 215.941 449.667 216.378 449.044 216.636C448.421 216.894 447.735 216.961 447.074 216.83C446.413 216.698 445.805 216.373 445.329 215.897C444.852 215.42 444.527 214.812 444.396 214.151C444.264 213.49 444.332 212.804 444.59 212.182C444.848 211.559 445.285 211.026 445.845 210.652C446.406 210.277 447.065 210.077 447.739 210.077C448.187 210.076 448.631 210.164 449.045 210.334C449.459 210.505 449.835 210.756 450.152 211.073C450.469 211.39 450.72 211.766 450.891 212.18C451.062 212.594 451.149 213.038 451.148 213.486Z" fill="white"/>
<path d="M403.721 187.26H404.074H409.124L423.877 187.332L472.527 187.678L479.562 187.734H481.291C481.587 187.725 481.883 187.744 482.175 187.79C482.46 187.856 482.732 187.97 482.979 188.128C483.495 188.453 483.868 188.962 484.024 189.551C484.153 190.122 484.249 190.661 484.37 191.215C485.238 195.605 486.082 199.85 486.878 203.886C488.486 211.926 489.918 219.235 491.124 225.345C492.33 231.456 493.286 236.392 493.954 239.817L494.758 243.757C494.838 244.199 494.902 244.561 494.943 244.778C494.983 244.995 494.999 245.132 494.999 245.132C494.999 245.132 494.999 245.011 494.918 244.786C494.838 244.561 494.79 244.207 494.701 243.765C494.508 242.856 494.235 241.538 493.897 239.841C493.206 236.416 492.209 231.48 490.971 225.369C489.733 219.259 488.293 211.991 486.669 203.919C485.865 199.899 485.061 195.645 484.137 191.256C484.032 190.709 483.928 190.138 483.807 189.648C483.667 189.126 483.334 188.678 482.875 188.393C482.65 188.247 482.398 188.146 482.135 188.096C481.87 188.049 481.6 188.033 481.331 188.048H479.602L472.567 187.991L423.909 187.565L409.164 187.404L405.144 187.348H404.107L403.721 187.26Z" fill="#263238"/>
<path d="M75.4217 218.447C75.2992 223.996 76.3537 229.508 78.5155 234.62C80.6773 239.732 83.8975 244.329 87.9641 248.106C89.8294 242.698 91.7054 237.287 93.5921 231.874" fill="#263238"/>
<path d="M117.674 186.15C112.85 183.521 107.053 183.143 101.674 184.221C96.2954 185.298 91.2865 187.726 86.5429 190.476C83.8816 192.011 81.2284 193.692 79.3069 196.104C75.8095 200.494 72.3603 207.714 72.0226 213.317C71.7493 217.852 73.4859 229.196 75.3994 233.305C77.1602 237.084 85.3851 239.962 89.4453 240.895L126.703 197.567C126.029 195.161 124.883 192.913 123.333 190.953C121.783 188.993 119.86 187.361 117.674 186.15Z" fill="#263238"/>
<path d="M124.097 191.995L115.164 190.387C120.044 202.013 121.371 228.601 124.161 240.903C127.457 236.127 135.103 221.607 134.693 215.786C134.283 209.965 134.709 191.006 124.097 191.995Z" fill="#263238"/>
<path d="M81.7499 211.348C81.9134 208.083 83.1201 204.956 85.1925 202.428C87.2649 199.9 90.0937 198.103 93.2631 197.302L113.829 192.052C122.714 191.095 128.655 202.029 129.234 210.946C129.877 220.859 130.279 231.319 129.122 238.716C126.79 253.598 115.397 255.512 115.397 255.512C115.397 255.512 115.397 262.587 115.397 266.936L108.515 295.422L86.3327 264.79L81.7418 211.525C81.6936 211.275 81.7257 211.686 81.7499 211.348Z" fill="#FFBE9D"/>
<path d="M124.733 222.185C124.74 222.683 124.552 223.163 124.209 223.523C123.867 223.884 123.397 224.096 122.9 224.115C122.657 224.135 122.414 224.106 122.183 224.03C121.952 223.954 121.738 223.833 121.554 223.673C121.371 223.514 121.221 223.319 121.114 223.101C121.007 222.883 120.944 222.645 120.93 222.403C120.921 221.905 121.109 221.423 121.451 221.062C121.794 220.701 122.265 220.49 122.763 220.473C123.006 220.452 123.25 220.48 123.481 220.556C123.713 220.631 123.927 220.752 124.111 220.912C124.294 221.072 124.444 221.267 124.551 221.486C124.658 221.704 124.72 221.942 124.733 222.185Z" fill="#263238"/>
<path d="M126.968 216.774C126.734 217.024 125.287 215.97 123.237 215.97C121.187 215.97 119.675 217.008 119.458 216.774C119.346 216.662 119.587 216.212 120.262 215.737C121.147 215.115 122.204 214.786 123.285 214.797C124.352 214.79 125.394 215.122 126.26 215.745C126.871 216.212 127.088 216.662 126.968 216.774Z" fill="#263238"/>
<path d="M106.844 222.185C106.851 222.683 106.663 223.163 106.32 223.523C105.978 223.884 105.508 224.096 105.011 224.115C104.769 224.136 104.524 224.108 104.293 224.032C104.061 223.957 103.847 223.836 103.664 223.676C103.48 223.516 103.33 223.321 103.223 223.102C103.116 222.884 103.054 222.646 103.041 222.402C103.033 221.905 103.22 221.423 103.563 221.062C103.906 220.701 104.377 220.49 104.874 220.473C105.117 220.453 105.361 220.482 105.592 220.558C105.823 220.634 106.036 220.755 106.22 220.915C106.403 221.074 106.553 221.269 106.66 221.487C106.767 221.705 106.83 221.943 106.844 222.185Z" fill="#263238"/>
<path d="M107.479 216.775C107.238 217.024 105.79 215.971 103.74 215.971C101.69 215.971 100.187 217.008 99.9614 216.775C99.8569 216.662 100.09 216.212 100.765 215.737C101.649 215.114 102.707 214.785 103.788 214.797C104.855 214.79 105.897 215.122 106.763 215.745C107.374 216.212 107.591 216.662 107.479 216.775Z" fill="#263238"/>
<path d="M113.893 232.895C113.893 232.783 115.155 232.558 117.222 232.284C117.752 232.228 118.243 232.123 118.331 231.77C118.374 231.228 118.25 230.687 117.977 230.218C117.484 228.948 116.964 227.608 116.418 226.198C114.255 220.522 112.687 215.85 112.912 215.746C113.137 215.641 115.083 220.2 117.254 225.876C117.768 227.275 118.275 228.61 118.741 229.896C119.074 230.525 119.174 231.251 119.023 231.946C118.951 232.138 118.836 232.31 118.687 232.45C118.538 232.589 118.358 232.692 118.162 232.75C117.871 232.831 117.572 232.874 117.27 232.879C115.187 233 113.901 233.016 113.893 232.895Z" fill="#263238"/>
<path d="M95.6758 250.221C95.6758 250.221 100.5 260.44 115.398 259.008V255.511C108.461 255.606 101.634 253.775 95.6758 250.221Z" fill="#EB996E"/>
<path d="M106.834 209.362C106.633 209.917 104.583 209.659 102.171 209.957C99.7587 210.254 97.8211 210.906 97.4995 210.407C97.3547 210.174 97.6924 209.643 98.4803 209.105C99.5171 208.424 100.703 208.005 101.938 207.882C103.17 207.731 104.421 207.874 105.588 208.301C106.472 208.654 106.93 209.097 106.834 209.362Z" fill="#263238"/>
<path d="M126.299 210.496C125.938 210.962 124.523 210.496 122.826 210.496C121.13 210.496 119.682 210.817 119.353 210.327C119.208 210.094 119.433 209.627 120.06 209.185C120.907 208.647 121.896 208.375 122.899 208.403C123.902 208.432 124.873 208.76 125.688 209.346C126.227 209.788 126.46 210.271 126.299 210.496Z" fill="#263238"/>
<path d="M125.158 197.366C124.249 195.131 121.797 193.78 119.385 193.659C116.952 193.659 114.57 194.354 112.519 195.661C103.675 200.783 99.1163 213.148 90.3607 218.447C88.206 219.749 85.4081 218.551 83.575 220.28C81.7418 222.008 80.56 224.766 81.573 227.065C80.3145 225.502 79.2907 223.763 78.5339 221.904C78.1588 220.976 77.9869 219.978 78.0299 218.978C78.0729 217.978 78.3297 216.999 78.7831 216.107C79.5389 214.796 80.8735 213.791 81.2434 212.328C81.565 211.034 81.0504 209.683 81.1067 208.348C81.2572 206.993 81.7255 205.693 82.4735 204.553C85.8985 198.491 90.618 193.008 96.6882 189.599C100.653 187.309 105.167 186.141 109.745 186.222C114.339 186.33 118.742 188.078 122.159 191.151C124.121 192.976 126.179 194.865 125.158 197.342" fill="#263238"/>
<path d="M83.793 222.121C83.6322 221.695 75.8736 218.905 75.753 227.146C75.6484 235.186 83.7367 233.578 83.793 233.345C83.8492 233.112 83.793 222.121 83.793 222.121Z" fill="#FFBE9D"/>
<path d="M81.333 230.29C81.333 230.29 81.1882 230.386 80.9551 230.491C80.6199 230.627 80.245 230.627 79.9099 230.491C79.1059 230.177 78.3662 228.827 78.3019 227.38C78.2865 226.692 78.4267 226.011 78.7119 225.386C78.7918 225.13 78.9344 224.898 79.1268 224.711C79.3192 224.524 79.5552 224.389 79.8134 224.316C79.9722 224.281 80.1385 224.3 80.2846 224.372C80.4308 224.444 80.5482 224.563 80.6174 224.71C80.7219 224.935 80.6656 225.096 80.7058 225.104C80.746 225.112 80.8827 224.976 80.8184 224.646C80.7777 224.447 80.6698 224.268 80.5129 224.139C80.4005 224.051 80.2711 223.987 80.1327 223.951C79.9944 223.915 79.8501 223.908 79.7089 223.93C79.3792 223.99 79.0705 224.134 78.8127 224.348C78.5549 224.562 78.3568 224.839 78.2376 225.152C77.8929 225.844 77.7192 226.607 77.731 227.38C77.7712 228.988 78.5833 230.515 79.741 230.861C79.9554 230.926 80.1819 230.942 80.4034 230.908C80.6248 230.873 80.8355 230.788 81.0194 230.66C81.3169 230.483 81.3571 230.306 81.333 230.29Z" fill="#EB996E"/>
<path d="M80.5996 218.005C80.7724 217.935 80.9369 217.846 81.09 217.74C81.3956 217.539 81.894 217.281 82.4327 216.879C84.0095 215.725 85.4595 214.408 86.7583 212.948C88.6475 210.758 90.4111 208.463 92.0405 206.074C94.0145 203.151 96.2277 200.397 98.6574 197.841C99.9509 196.566 101.38 195.436 102.919 194.472C104.364 193.591 105.911 192.889 107.526 192.381C110.265 191.504 113.146 191.155 116.016 191.352C117.952 191.469 119.864 191.845 121.7 192.47C122.359 192.671 122.842 192.888 123.187 193.017C123.353 193.1 123.529 193.163 123.71 193.202C123.549 193.108 123.383 193.025 123.212 192.952C122.736 192.718 122.247 192.512 121.748 192.333C119.91 191.657 117.986 191.24 116.032 191.095C113.128 190.867 110.207 191.2 107.429 192.076C105.784 192.584 104.207 193.291 102.734 194.182C101.167 195.158 99.7141 196.304 98.4002 197.599C95.9517 200.167 93.7323 202.943 91.7672 205.897C90.1548 208.285 88.4157 210.585 86.5573 212.787C85.2894 214.263 83.8782 215.61 82.3443 216.807C81.7976 217.225 81.3393 217.498 81.0498 217.716C80.7604 217.933 80.5996 217.997 80.5996 218.005Z" fill="#455A64"/>
<path d="M80.3984 231.705C79.9961 231.629 79.5802 231.71 79.2355 231.931C78.8908 232.151 78.6431 232.495 78.543 232.892C78.4429 233.289 78.4979 233.709 78.6967 234.067C78.8956 234.424 79.2234 234.693 79.6132 234.817C80.0031 234.942 80.4258 234.913 80.7951 234.736C81.1644 234.56 81.4526 234.249 81.6009 233.868C81.7492 233.486 81.7464 233.063 81.5932 232.683C81.44 232.304 81.1478 231.997 80.7762 231.825" fill="white"/>
<path d="M80.7924 231.826C81.1382 232.102 81.3908 232.478 81.516 232.903C81.5713 233.122 81.5716 233.351 81.5169 233.57C81.4622 233.788 81.3542 233.99 81.2025 234.157C81.0214 234.367 80.7822 234.519 80.515 234.594C80.2478 234.669 79.9645 234.663 79.7008 234.577C79.437 234.491 79.2045 234.329 79.0325 234.111C78.8605 233.893 78.7567 233.63 78.7342 233.353C78.7073 233.129 78.7366 232.901 78.8193 232.691C78.9021 232.48 79.0359 232.293 79.2085 232.147C79.5551 231.876 79.9755 231.717 80.4145 231.689C80.4145 231.689 80.2939 231.609 80.0447 231.601C79.681 231.603 79.3282 231.725 79.0397 231.946C78.8182 232.112 78.6433 232.333 78.5321 232.586C78.4208 232.84 78.3769 233.118 78.4045 233.394C78.4241 233.74 78.5483 234.072 78.7606 234.346C78.9729 234.62 79.2633 234.823 79.5935 234.928C79.9237 235.034 80.2781 235.036 80.6099 234.936C80.9417 234.836 81.2352 234.637 81.4517 234.366C81.5985 234.191 81.7075 233.988 81.7719 233.769C81.8363 233.55 81.8548 233.32 81.8261 233.094C81.7974 232.867 81.7222 232.649 81.6052 232.453C81.4882 232.257 81.3319 232.087 81.1462 231.954C80.9371 231.826 80.8005 231.802 80.7924 231.826Z" fill="#263238"/>
<path d="M82.6169 220.296C82.4882 222.483 82.3918 224.799 83.4209 226.728C84.45 228.658 86.9746 230.001 88.88 228.907C90.4318 228.023 90.8981 226.037 91.1634 224.268C91.9192 219.163 92.2649 214.009 93.0689 208.912L82.6169 220.296Z" fill="#263238"/>
<path d="M123.189 193.555C123.189 193.603 122.482 193.418 121.195 193.378C119.382 193.349 117.582 193.68 115.897 194.351C114.731 194.797 113.618 195.368 112.576 196.055C111.383 196.86 110.24 197.735 109.151 198.676C106.633 200.812 104.379 203.241 102.438 205.912C101.425 207.344 100.524 208.815 99.5436 210.174C98.6197 211.501 97.54 212.713 96.3276 213.784C94.252 215.547 91.9805 217.066 89.5579 218.31C87.5077 219.395 85.7952 220.159 84.6133 220.722L83.2385 221.301C83.0828 221.38 82.9181 221.439 82.748 221.478C82.8892 221.373 83.0432 221.286 83.2063 221.221L84.541 220.561C85.6987 219.99 87.3871 219.186 89.365 218.077C91.74 216.8 93.9694 215.268 96.014 213.51C97.1907 212.451 98.2403 211.258 99.1416 209.957C100.098 208.614 100.999 207.143 102.028 205.695C103.984 202.995 106.269 200.548 108.83 198.411C109.941 197.467 111.109 196.591 112.327 195.79C113.398 195.104 114.542 194.538 115.736 194.102C117.464 193.444 119.309 193.153 121.155 193.249C121.655 193.285 122.152 193.355 122.643 193.458C122.828 193.466 123.012 193.499 123.189 193.555Z" fill="#455A64"/>
<path d="M82.393 215.327C82.1773 215.514 81.9397 215.673 81.6855 215.802L79.6594 216.992L78.976 217.386C78.708 217.544 78.4091 217.642 78.0997 217.675C77.9105 217.697 77.7196 217.652 77.561 217.546C77.4727 217.487 77.3993 217.409 77.3463 217.317C77.2933 217.225 77.2622 217.122 77.2555 217.016C77.2762 216.648 77.4079 216.294 77.6333 216.003L79.9891 212.256L80.3107 212.545C78.7377 213.697 76.8135 214.265 74.8676 214.153C74.6185 214.149 74.3717 214.105 74.1359 214.025C74.0002 213.985 73.8747 213.916 73.7679 213.823C73.6611 213.73 73.5755 213.615 73.5169 213.486C73.4721 213.351 73.4611 213.207 73.4849 213.067C73.5088 212.927 73.5667 212.795 73.6535 212.682C73.7897 212.501 73.9432 212.334 74.1118 212.184C75.1675 211.161 76.0839 210.004 76.8374 208.743C77.5025 207.544 78.0828 206.3 78.574 205.02C78.5384 205.389 78.4518 205.752 78.3167 206.097C78.0107 207.061 77.6066 207.99 77.1107 208.871C76.3801 210.185 75.4679 211.39 74.4013 212.449C74.1038 212.73 73.8063 213.06 73.9189 213.309C74.0314 213.558 74.4736 213.687 74.8917 213.687C75.8072 213.736 76.724 213.624 77.6012 213.357C78.4678 213.095 79.2835 212.687 80.0132 212.151L80.9699 211.452L80.3348 212.449C79.4745 213.784 78.6625 215.038 77.9228 216.188C77.7354 216.418 77.6157 216.697 77.5771 216.992C77.5828 217.046 77.5997 217.098 77.6267 217.146C77.6538 217.193 77.6904 217.234 77.7342 217.267C77.7781 217.299 77.8282 217.322 77.8814 217.335C77.9346 217.347 77.9898 217.348 78.0434 217.337C78.5562 217.231 79.0444 217.029 79.4825 216.742L81.5729 215.665C81.8312 215.519 82.1067 215.405 82.393 215.327Z" fill="#455A64"/>
<path d="M106.129 236.681C106.277 236.071 106.635 235.533 107.141 235.161C107.647 234.789 108.268 234.607 108.894 234.647C109.352 234.704 109.788 234.873 110.164 235.14C110.54 235.406 110.844 235.762 111.049 236.175C111.247 236.592 111.36 237.044 111.381 237.505C111.402 237.966 111.33 238.427 111.17 238.86L111.129 239.045C110.703 239.506 110.143 239.824 109.529 239.955C108.914 240.086 108.274 240.024 107.696 239.777C107.129 239.507 106.668 239.057 106.384 238.496C106.101 237.936 106.011 237.298 106.129 236.681Z" fill="#EB996E"/>
<path d="M112.558 239.094C112.558 238.78 110.484 238.877 108.924 237.18C107.364 235.484 107.477 233.249 107.187 233.249C107.059 233.249 106.81 233.763 106.834 234.696C106.872 235.914 107.342 237.08 108.16 237.984C108.946 238.848 110.034 239.375 111.199 239.455C112.092 239.488 112.558 239.23 112.558 239.094Z" fill="#263238"/>
<path d="M72.2785 262.578L86.5736 260.504L115.164 264.733L123.188 267.571L121.765 285.122L94.276 290.18L75.7277 284.688L68.7168 274.365L72.2785 262.578Z" fill="#FFBE9D"/>
<path d="M63.2749 264.259L75.2384 261.437C75.2384 261.437 83.6885 287.583 104.56 286.457C121.573 285.541 121.766 266.55 121.766 266.55L134.027 270.474C134.027 270.474 138.714 301.918 133.528 324.197C132.314 329.399 130.69 336.418 130.69 336.418L132.347 368.964L41.6875 369.109L63.2749 264.259Z" fill="url(#paint4_linear_551_27998)"/>
<g opacity="0.3">
<path d="M98.8122 362.652C94.4063 362.54 90.33 362.91 85.9482 362.805C80.6579 362.677 75.3274 362.548 70.1014 363.408C66.1778 364.051 62.3669 365.249 58.4514 365.868C53.1048 366.672 47.3964 366.407 42.6367 363.834L43.4166 359.388L61.4825 355.039L98.8122 362.652Z" fill="black"/>
</g>
<path d="M144.262 277.806C140.113 272.443 133.223 270.216 133.223 270.216L128.584 310.601L137.372 369.398L166.139 369.261C166.139 369.261 150.268 285.565 144.262 277.806Z" fill="url(#paint5_linear_551_27998)"/>
<path d="M64.673 263.961C64.673 263.961 45.3047 265.513 38.3581 297.239C35.2145 311.59 31.2427 328.41 30.101 339.714C29.2649 347.907 33.7673 360.747 41.8957 361.8L52.1708 363.183C54.1859 363.475 56.2371 363.398 58.2249 362.958C64.7213 361.471 65.3805 357.016 66.5222 352.281L69.5211 342.818C71.1291 333.813 62.7756 332.133 58.1365 332.229L61.5937 291.129L64.673 263.961Z" fill="url(#paint6_linear_551_27998)"/>
<path d="M135.62 292.656C135.661 292.801 135.691 292.949 135.708 293.098L135.901 294.377C135.941 294.658 135.99 294.964 136.038 295.301C136.086 295.639 136.11 296.009 136.15 296.411C136.231 297.215 136.327 298.107 136.367 299.112C136.507 301.46 136.523 303.814 136.416 306.163C136.274 309.044 135.987 311.915 135.555 314.766C135.113 317.797 134.55 320.668 133.988 323.265C133.425 325.861 132.854 328.177 132.38 330.131C131.905 332.084 131.479 333.644 131.182 334.73L130.836 335.976C130.803 336.122 130.757 336.264 130.699 336.402C130.708 336.252 130.735 336.103 130.78 335.96L131.069 334.697C131.334 333.572 131.712 332.004 132.171 330.074C132.629 328.145 133.176 325.797 133.714 323.2C134.253 320.603 134.816 317.749 135.258 314.718C135.7 311.687 136.014 308.801 136.134 306.155C136.255 303.51 136.271 301.122 136.134 299.12C136.134 298.115 136.022 297.215 135.957 296.419C135.957 296.025 135.901 295.655 135.877 295.317C135.853 294.98 135.797 294.674 135.764 294.393C135.708 293.854 135.668 293.428 135.628 293.106C135.614 292.957 135.612 292.806 135.62 292.656Z" fill="#263238"/>
<path d="M42.9492 343.348C42.9638 343.075 43.0151 342.804 43.102 342.544C43.2906 341.83 43.5408 341.133 43.8497 340.462C44.8633 338.215 46.4447 336.27 48.438 334.819C50.4314 333.369 52.7681 332.462 55.2183 332.189C55.9519 332.102 56.6915 332.078 57.4293 332.117C57.7001 332.118 57.9698 332.15 58.2333 332.213C57.2336 332.225 56.2353 332.289 55.2424 332.406C52.8491 332.736 50.5745 333.652 48.6206 335.073C46.6668 336.494 45.0942 338.375 44.0427 340.55C43.6256 341.462 43.2606 342.396 42.9492 343.348Z" fill="#263238"/>
<path d="M47.4355 327.542C47.4355 327.542 47.6044 327.501 47.9099 327.493C48.3341 327.489 48.7581 327.508 49.1802 327.55C52.0104 327.851 54.6919 328.968 56.8986 330.766C57.234 331.031 57.551 331.318 57.8473 331.626C58.0564 331.843 58.1609 331.964 58.1448 331.98C58.1287 331.996 57.6222 331.57 56.7619 330.934C54.5183 329.29 51.9078 328.216 49.1561 327.807C48.0868 327.614 47.4355 327.59 47.4355 327.542Z" fill="#263238"/>
<path d="M67.471 286.457C67.4247 286.176 67.4086 285.89 67.4228 285.605C67.4228 285.058 67.4228 284.271 67.3183 283.306C67.1405 280.777 66.7096 278.272 66.0319 275.829C65.3423 273.39 64.4076 271.028 63.242 268.777C62.7918 267.917 62.438 267.226 62.1325 266.759C61.9791 266.521 61.8446 266.271 61.7305 266.012C61.9219 266.222 62.0916 266.451 62.237 266.695C62.5425 267.145 62.9606 267.821 63.435 268.673C64.667 270.913 65.6381 273.287 66.3293 275.748C67.0124 278.209 67.417 280.739 67.5353 283.29C67.5353 284.271 67.5353 285.058 67.5353 285.605C67.5438 285.891 67.5222 286.176 67.471 286.457Z" fill="#263238"/>
<path d="M104.56 315.256C104.56 315.256 104.56 315.377 104.471 315.594C104.38 315.91 104.273 316.222 104.15 316.527C103.719 317.663 103.18 318.757 102.542 319.791C100.923 322.47 98.7184 324.748 96.0937 326.454C93.469 328.159 90.4921 329.249 87.3864 329.64C85.5927 329.87 83.7771 329.87 81.9835 329.64C80.7763 329.484 79.5864 329.215 78.4298 328.836C78.1133 328.74 77.802 328.627 77.4972 328.498C77.3876 328.465 77.2823 328.42 77.1836 328.362C77.1836 328.362 77.6419 328.49 78.462 328.723C79.6235 329.045 80.8093 329.271 82.0076 329.399C85.9763 329.864 89.9956 329.193 93.5979 327.464C97.2002 325.734 100.238 323.018 102.357 319.63C103.004 318.605 103.568 317.529 104.045 316.414C104.375 315.699 104.52 315.248 104.56 315.256Z" fill="#263238"/>
<path d="M63.7493 359.895C63.7493 359.895 63.4116 360.305 62.688 360.9C61.6337 361.699 60.4271 362.273 59.1424 362.588C57.238 363.062 55.2713 363.235 53.3134 363.103C51.1024 362.942 48.6582 362.685 46.1256 362.299C43.7395 361.991 41.3889 361.452 39.1067 360.691C38.1552 360.272 37.2844 359.69 36.5339 358.97C35.8647 358.348 35.2588 357.661 34.7249 356.92C33.9513 355.845 33.2886 354.695 32.7471 353.487C32.5622 353.053 32.4174 352.683 32.337 352.49C32.2845 352.374 32.2254 352.261 32.1602 352.152C32.1684 352.28 32.1984 352.405 32.2486 352.522C32.321 352.763 32.4496 353.109 32.6184 353.551C33.1339 354.788 33.7894 355.961 34.5722 357.049C35.1045 357.809 35.7104 358.514 36.3812 359.155C37.1476 359.904 38.0404 360.511 39.0183 360.948C41.308 361.742 43.6736 362.297 46.0774 362.604C48.6261 362.982 51.0622 363.231 53.3134 363.408C55.302 363.536 57.2981 363.338 59.2228 362.821C60.5223 362.476 61.7318 361.853 62.7684 360.996C63.0453 360.753 63.2984 360.484 63.5242 360.192C63.6089 360.101 63.6844 360.001 63.7493 359.895Z" fill="#263238"/>
<path d="M66.9415 296.572C66.8611 296.572 64.8189 304.475 62.3828 314.26C59.9467 324.044 58.0412 332.052 58.1216 332.052C58.202 332.052 60.2522 324.149 62.6883 314.364C65.1244 304.58 67.0299 296.588 66.9415 296.572Z" fill="#263238"/>
<path d="M69.4078 341.306C69.4709 341.095 69.5034 340.876 69.5043 340.655C69.5703 340.057 69.5864 339.455 69.5525 338.854C69.4873 337.948 69.1851 337.074 68.6762 336.321C68.3925 335.869 68.0609 335.449 67.6872 335.067C67.271 334.674 66.8095 334.331 66.3124 334.046C64.5564 333.118 62.6518 332.503 60.6844 332.229C60.0935 332.137 59.4973 332.084 58.8995 332.068C58.6813 332.032 58.4585 332.032 58.2402 332.068C58.2402 332.116 59.1729 332.157 60.6522 332.414C62.5758 332.752 64.4359 333.384 66.1677 334.287C66.6395 334.561 67.0767 334.89 67.4702 335.268C67.8305 335.634 68.1562 336.032 68.443 336.458C68.936 337.175 69.2402 338.004 69.3274 338.87C69.382 339.461 69.4008 340.054 69.3837 340.647C69.3654 340.867 69.3735 341.088 69.4078 341.306Z" fill="#263238"/>
<g opacity="0.3">
<path d="M134.725 319.308C139.669 310.939 139.774 300.069 135.464 291.361C136.845 300.644 136.545 310.099 134.58 319.276" fill="black"/>
</g>
<path d="M108.538 340.213L108.361 340.301L108.538 340.213Z" fill="#FFBE9D"/>
<path d="M126.847 356.872C125.287 353.929 113.139 346.179 113.139 346.179L116.427 345.415L120.061 346.951C120.335 348.182 120.866 349.341 121.621 350.351C122.956 352.257 125.223 350.287 125.223 350.287L123.687 342.931L116.508 338.605C116.508 338.605 109.746 339.642 108.653 340.165L105.774 342.802C104.504 343.791 100.854 347.698 99.8567 347.819C98.8598 347.939 67.5359 340.896 67.5359 340.896C63.2345 344.297 60.9753 351.067 60.2999 355.947C60.2999 355.947 59.4959 358.359 60.3643 359.646L98.8598 362.669L107.02 364.92C109.206 365.825 111.445 366.593 113.726 367.219C116.435 367.79 118.268 366.914 118.341 365.418C118.413 363.923 116.307 363.754 116.307 363.754C114.507 363.103 112.753 362.332 111.056 361.447C109.823 360.615 108.808 359.498 108.098 358.19L111.008 358.544C111.008 358.544 117.191 362.83 119.515 364.092C121.838 365.354 122.296 363.039 122.489 362.339C122.682 361.64 115.543 354.653 115.543 354.653C115.543 354.653 122.321 358.834 123.543 359.895C124.765 360.956 126.574 361.262 126.96 360.554C127.346 359.847 128.399 359.815 126.847 356.872Z" fill="#FFBE9D"/>
<path d="M93.3842 357.547C93.3589 357.39 93.3589 357.23 93.3842 357.072C93.3619 356.888 93.3619 356.702 93.3842 356.518C93.4106 356.268 93.4563 356.021 93.5208 355.778C93.9065 354.39 94.5774 353.097 95.4906 351.983C96.3756 350.861 97.3693 349.83 98.4574 348.904C98.8842 348.494 99.3531 348.13 99.8564 347.818C99.46 348.253 99.0385 348.663 98.5941 349.049C97.5556 350.01 96.5932 351.05 95.7158 352.16C94.8284 353.251 94.1497 354.497 93.7138 355.834C93.4163 356.871 93.4404 357.555 93.3842 357.547Z" fill="#EB996E"/>
<path d="M112.857 345.945C112.162 346.095 111.439 346.03 110.782 345.76C110.097 345.581 109.482 345.197 109.021 344.659C109.07 344.586 109.825 345.141 110.871 345.463C111.916 345.784 112.857 345.857 112.857 345.945Z" fill="#EB996E"/>
<path d="M114.875 354.001C113.814 353.715 112.779 353.341 111.78 352.884C110.748 352.509 109.75 352.046 108.797 351.501C109.859 351.783 110.895 352.157 111.892 352.619C112.925 352.992 113.923 353.455 114.875 354.001Z" fill="#EB996E"/>
<path d="M108.363 358.11C107.807 357.99 107.267 357.803 106.755 357.555C106.213 357.393 105.693 357.17 105.203 356.888C105.774 356.9 106.336 357.035 106.851 357.282C107.408 357.449 107.923 357.731 108.363 358.11Z" fill="#EB996E"/>
<path d="M113.879 354.564C113.879 354.644 113.203 354.91 112.681 355.617C112.39 356.063 112.157 356.544 111.989 357.048C111.989 357.048 111.917 356.855 111.989 356.55C112.06 356.147 112.225 355.767 112.472 355.44C112.723 355.117 113.044 354.856 113.412 354.677C113.67 354.516 113.863 354.5 113.879 354.564Z" fill="#EB996E"/>
<path d="M116.733 350.037C116.733 350.118 116.235 350.399 115.889 351.018C115.711 351.411 115.563 351.817 115.447 352.232C115.362 352.008 115.336 351.766 115.37 351.528C115.403 351.291 115.496 351.066 115.64 350.873C116.05 350.166 116.717 349.965 116.733 350.037Z" fill="#EB996E"/>
<path d="M115.775 342.014C115.775 342.014 115.638 341.893 115.55 341.628C115.455 341.278 115.455 340.909 115.55 340.559C115.633 340.204 115.811 339.879 116.065 339.618C116.258 339.417 116.418 339.353 116.434 339.377C116.146 339.745 115.94 340.172 115.831 340.627C115.721 341.081 115.71 341.555 115.799 342.014H115.775Z" fill="#EB996E"/>
<path d="M59.9698 360.731C60.0173 360.438 60.0362 360.142 60.0261 359.846C60.0261 359.565 60.0261 359.211 60.0261 358.809C60.0261 358.407 60.0261 357.949 60.1226 357.442C60.3653 354.812 60.9435 352.224 61.8431 349.74C62.3422 348.376 62.9526 347.056 63.6682 345.792C64.022 345.222 64.3275 344.667 64.6813 344.184L65.1797 343.485L65.6702 342.858C66.9486 341.29 67.9294 340.446 67.8892 340.446C67.6414 340.608 67.4098 340.794 67.1978 341.001C66.9146 341.221 66.6461 341.46 66.3938 341.716C66.1124 342.014 65.7827 342.335 65.4611 342.737L64.9466 343.356C64.7777 343.573 64.6089 343.815 64.432 344.056C64.0622 344.53 63.7406 345.093 63.3788 345.664C62.6432 346.948 62.0192 348.293 61.5135 349.684C60.6112 352.194 60.0698 354.82 59.9055 357.483C59.8573 357.997 59.9055 358.455 59.8492 358.865C59.793 359.275 59.8492 359.613 59.8492 359.903C59.8702 360.181 59.9105 360.458 59.9698 360.731Z" fill="#263238"/>
<g opacity="0.3">
<path d="M46.7618 333.218C50.3767 331.732 54.3553 331.371 58.1786 332.181C54.8955 332.031 51.6477 332.911 48.8888 334.697C46.1299 336.483 43.9977 339.086 42.7901 342.142C42.5087 342.882 41.9861 343.75 41.1821 343.638C40.3781 343.525 40.2012 342.617 40.2012 341.877C40.2012 338.034 43.2162 334.705 46.7618 333.218Z" fill="black"/>
</g>
<path d="M135.875 289.947C136.055 289.92 136.229 289.863 136.39 289.778C136.712 289.649 137.194 289.44 137.733 289.167C139.181 288.434 140.566 287.581 141.873 286.618C143.181 285.651 144.405 284.575 145.531 283.402C145.958 282.944 146.335 282.598 146.512 282.301C146.638 282.169 146.744 282.02 146.826 281.858C146.318 282.294 145.832 282.756 145.371 283.241C144.213 284.363 142.983 285.408 141.688 286.369C140.407 287.322 139.064 288.189 137.668 288.966C136.519 289.569 135.827 289.906 135.875 289.947Z" fill="white"/>
<path d="M67.1895 292.19L67.3422 292.294L67.8005 292.568C68.1945 292.809 68.7975 293.138 69.5854 293.556C71.8195 294.699 74.1361 295.672 76.5159 296.467C80.0509 297.644 83.6792 298.521 87.3618 299.088C91.867 299.759 96.4113 300.135 100.965 300.214C105.789 300.334 110.429 300.214 114.633 300.141C118.353 300.102 122.066 299.833 125.753 299.337C128.24 298.985 130.691 298.415 133.077 297.633C133.921 297.351 134.565 297.11 134.991 296.925L135.489 296.724L135.65 296.644C135.589 296.649 135.529 296.665 135.473 296.692L134.975 296.869C134.533 297.038 133.881 297.255 133.037 297.52C130.646 298.252 128.199 298.79 125.721 299.128C122.041 299.61 118.336 299.878 114.625 299.932C110.437 300.013 105.822 300.093 100.957 299.98C96.415 299.897 91.8823 299.53 87.3859 298.879C83.7185 298.33 80.1019 297.483 76.5721 296.346C74.1976 295.547 71.8818 294.582 69.6417 293.46C68.8377 293.066 68.2347 292.752 67.8246 292.527L67.3583 292.278C67.2538 292.214 67.1975 292.182 67.1895 292.19Z" fill="white"/>
<path d="M135.641 313.367C135.891 313.335 136.139 313.281 136.38 313.206L138.358 312.667C140.022 312.193 142.322 311.526 144.854 310.77C147.387 310.014 149.678 309.307 151.327 308.784L153.272 308.149C153.518 308.085 153.755 307.993 153.98 307.875C153.729 307.906 153.481 307.96 153.24 308.036L151.262 308.575C149.59 309.049 147.299 309.717 144.766 310.472C142.233 311.228 139.942 311.936 138.294 312.458L136.34 313.093C136.096 313.154 135.861 313.246 135.641 313.367Z" fill="white"/>
<path d="M133.912 346.259C133.912 346.339 139.87 344.651 147.17 342.448C154.471 340.245 160.372 338.428 160.348 338.347C160.324 338.267 154.382 339.955 147.082 342.158C139.781 344.361 133.88 346.178 133.912 346.259Z" fill="white"/>
<path d="M47.9492 275.137C48.1471 275.332 48.3655 275.504 48.6005 275.652C49.0346 275.973 49.6778 276.416 50.4818 276.938C52.5821 278.284 54.7593 279.505 57.0023 280.596C59.2441 281.702 61.5504 282.671 63.9086 283.499C64.8171 283.82 65.5568 284.054 66.0714 284.198C66.333 284.291 66.6019 284.361 66.8754 284.407C66.6191 284.273 66.3497 284.165 66.0714 284.086L63.9488 283.282C62.1559 282.598 59.7198 281.585 57.0987 280.299C54.4777 279.012 52.1863 277.702 50.5542 276.705L48.6326 275.507C48.4138 275.368 48.1854 275.244 47.9492 275.137Z" fill="white"/>
<path d="M36.0996 308.929C36.4074 309.109 36.7302 309.263 37.0644 309.387C37.6915 309.669 38.6161 310.039 39.7739 310.465C45.8055 312.666 52.1404 313.924 58.5553 314.195C59.7854 314.252 60.7824 314.26 61.4658 314.244C61.8232 314.254 62.1808 314.235 62.5351 314.187C62.1808 314.139 61.8234 314.117 61.4658 314.123C60.7824 314.123 59.7935 314.059 58.5714 313.978C52.1908 313.584 45.8924 312.332 39.8462 310.256C38.6885 309.862 37.7478 309.524 37.1126 309.275C36.7834 309.136 36.4449 309.021 36.0996 308.929Z" fill="white"/>
<path d="M53.2232 362.982C53.2393 362.873 53.2393 362.762 53.2232 362.652C53.2232 362.403 53.1348 362.098 53.0705 361.72C53.0062 361.342 52.9177 360.811 52.8614 360.232C52.8052 359.653 52.7006 358.994 52.6765 358.263C52.6765 357.893 52.6524 357.507 52.6042 357.105C52.6042 356.711 52.6042 356.301 52.6042 355.859C52.6042 354.998 52.6444 354.074 52.6846 353.101C52.9678 348.899 53.9515 344.774 55.595 340.896C55.997 340.012 56.399 339.16 56.785 338.404C56.986 338.026 57.1628 337.648 57.3719 337.302L57.9588 336.305C58.3126 335.67 58.7065 335.131 59.0281 334.641C59.3497 334.151 59.6392 333.741 59.8884 333.411L60.4432 332.647C60.5162 332.561 60.5783 332.467 60.6281 332.366C60.5416 332.437 60.4634 332.518 60.3949 332.607L59.7919 333.339C59.5266 333.66 59.213 334.054 58.8834 334.537C58.5538 335.019 58.1437 335.558 57.7658 336.193L57.1628 337.182C56.9538 337.527 56.7689 337.905 56.5598 338.283C56.1257 339.039 55.7558 339.891 55.3378 340.784C54.4951 342.731 53.8147 344.746 53.3036 346.806C52.8199 348.872 52.5053 350.975 52.363 353.093C52.363 354.074 52.2665 354.998 52.3067 355.867C52.3067 356.301 52.3067 356.727 52.3067 357.129C52.3067 357.531 52.363 357.933 52.3951 358.287C52.3951 359.026 52.5479 359.686 52.6283 360.265C52.6894 360.762 52.778 361.256 52.8936 361.744C52.974 362.122 53.0383 362.427 53.0946 362.677C53.1244 362.783 53.1676 362.886 53.2232 362.982Z" fill="white"/>
<path d="M30.2454 344.755C30.2856 344.755 30.2937 344.273 30.4304 343.413C30.6357 342.204 31.0291 341.035 31.5962 339.948C32.4456 338.34 33.585 336.904 34.9569 335.71C36.6362 334.248 38.5753 333.113 40.6733 332.366C42.7902 331.671 44.9985 331.295 47.2259 331.248C49.0481 331.197 50.8716 331.264 52.6851 331.449C54.2368 331.602 55.491 331.755 56.3594 331.851L57.3644 331.964H57.7101C57.6026 331.919 57.4886 331.892 57.3724 331.883L56.3755 331.715C55.5152 331.578 54.2609 331.393 52.7092 331.216C50.8845 330.999 49.0471 330.908 47.2099 330.943C44.9526 330.973 42.7132 331.347 40.5688 332.052C38.4333 332.809 36.4647 333.972 34.772 335.477C33.379 336.696 32.2351 338.173 31.4032 339.827C30.8417 340.939 30.472 342.138 30.3098 343.373C30.2665 343.706 30.245 344.042 30.2454 344.378C30.2333 344.503 30.2333 344.63 30.2454 344.755Z" fill="white"/>
<path d="M94.2363 327.542L94.574 327.598L95.5388 327.694L99.1086 327.992C102.124 328.225 106.288 328.514 110.895 328.748C115.502 328.981 119.675 329.141 122.706 329.174C124.217 329.174 125.44 329.174 126.284 329.174H127.257C127.368 329.193 127.483 329.193 127.594 329.174H127.257H126.284L122.706 329.085C119.691 328.997 115.518 328.82 110.911 328.579L99.1246 327.911L95.5468 327.71L94.574 327.67C94.4701 327.607 94.3557 327.564 94.2363 327.542Z" fill="white"/>
<g opacity="0.3">
<path d="M90.7781 328.772C87.0315 329.873 81.8377 330.147 78.1875 328.772C81.0417 332.792 86.5571 334.295 91.3409 332.977C96.1247 331.658 100.539 326.866 100.909 321.914C98.3091 325.178 94.7746 327.571 90.7781 328.772Z" fill="black"/>
</g>
<path d="M60.3945 324.856L60.692 324.937L61.5603 325.122C62.308 325.274 63.4015 325.483 64.7763 325.717C67.4858 326.191 71.2083 326.778 75.3972 327.284C79.586 327.791 83.3407 328.129 86.0823 328.322C87.4572 328.418 88.5667 328.482 89.2983 328.515H90.1827C90.2866 328.531 90.3924 328.531 90.4963 328.515L90.1908 328.466L89.3064 328.378L86.0904 328.088C83.3568 327.839 79.586 327.469 75.4293 326.963C71.2726 326.456 67.518 325.902 64.8085 325.483L61.5925 324.985L60.7161 324.856C60.499 324.816 60.3945 324.816 60.3945 324.856Z" fill="white"/>
<g opacity="0.3">
<path d="M66.6283 298.373C67.569 309.138 64.6344 319.823 61.732 330.235C61.6 330.885 61.3254 331.497 60.928 332.028C60.7244 332.288 60.4428 332.476 60.1244 332.565C59.806 332.653 59.4677 332.637 59.1592 332.518C58.2506 332.06 58.3552 330.742 58.6285 329.761L66.6685 298.815" fill="black"/>
</g>
<path d="M217.215 309.098L205.018 369.108H98.8899C98.3291 369.108 97.7913 368.886 97.3947 368.489C96.9982 368.092 96.7754 367.555 96.7754 366.994C96.7754 366.432 96.9979 365.894 97.3942 365.496C97.7905 365.098 98.3284 364.873 98.8899 364.871H120.252L131.581 309.066C131.686 308.545 131.967 308.076 132.377 307.738C132.787 307.399 133.3 307.213 133.832 307.208L214.923 306.324C215.268 306.319 215.61 306.392 215.924 306.537C216.237 306.682 216.514 306.895 216.734 307.162C216.954 307.428 217.111 307.74 217.194 308.075C217.277 308.41 217.284 308.76 217.215 309.098Z" fill="#E0E0E0"/>
<path d="M217.217 309.098C217.217 309.098 217.217 309.042 217.257 308.921C217.317 308.47 217.243 308.012 217.044 307.603C216.846 307.194 216.531 306.853 216.14 306.621C215.934 306.488 215.709 306.388 215.472 306.324C215.207 306.281 214.937 306.265 214.668 306.276H212.763H207.987L177.322 306.565L155.952 306.782L143.973 306.903L137.693 306.967H134.477C134.204 306.967 133.947 306.967 133.673 306.967C133.393 306.995 133.121 307.074 132.869 307.2C132.346 307.454 131.932 307.888 131.703 308.422C131.6 308.682 131.525 308.951 131.478 309.226L131.318 310.03C131.205 310.569 131.1 311.108 130.988 311.638C130.763 312.724 130.546 313.809 130.321 314.911C129.87 317.114 129.42 319.333 128.962 321.584C128.045 326.097 127.11 330.704 126.156 335.405L120.198 364.686L120.343 364.566H99.246C98.977 364.552 98.7073 364.568 98.442 364.614C97.8926 364.719 97.4016 365.023 97.0639 365.469C96.7262 365.915 96.5658 366.47 96.6138 367.027C96.6618 367.585 96.9148 368.104 97.3238 368.486C97.7328 368.867 98.2687 369.083 98.8279 369.092H155.172H205.02H205.109V369.004C208.839 350.56 211.878 335.557 213.953 325.154C214.998 319.96 215.818 315.916 216.365 313.166C216.638 311.799 216.847 310.754 216.984 310.038C217.12 309.323 217.185 308.969 217.185 308.969L216.952 310.03C216.807 310.746 216.59 311.791 216.3 313.158C215.738 315.9 214.901 319.944 213.832 325.13L204.851 368.964L205.02 369.036H155.172H98.8118C98.5095 369.018 98.214 368.939 97.9435 368.803C97.7003 368.67 97.4877 368.487 97.3197 368.266C97.1517 368.046 97.032 367.792 96.9683 367.522C96.9046 367.252 96.8984 366.972 96.95 366.699C97.0017 366.427 97.1101 366.168 97.2682 365.941C97.5522 365.528 97.9839 365.24 98.4742 365.137C98.7396 365.091 99.0095 365.078 99.2782 365.096H120.407V364.984L126.341 335.702C127.295 330.996 128.23 326.389 129.147 321.881C129.602 319.63 130.053 317.406 130.497 315.208C130.723 314.107 130.94 313.013 131.165 311.928C131.269 311.389 131.382 310.842 131.486 310.32L131.655 309.516C131.692 309.241 131.759 308.971 131.856 308.712C132.066 308.237 132.436 307.85 132.901 307.618C133.129 307.5 133.378 307.427 133.633 307.401C133.882 307.401 134.164 307.401 134.437 307.401L137.653 307.361L143.932 307.289L155.904 307.152L177.282 306.903L207.939 306.525L212.715 306.461H214.62C214.889 306.449 215.158 306.465 215.424 306.509C215.892 306.61 216.318 306.853 216.642 307.206C216.966 307.559 217.172 308.004 217.233 308.479C217.251 308.685 217.246 308.893 217.217 309.098Z" fill="#263238"/>
<path d="M168.324 336.563C168.324 337.256 168.53 337.934 168.915 338.51C169.3 339.087 169.848 339.536 170.488 339.801C171.129 340.066 171.834 340.136 172.514 340.001C173.194 339.865 173.818 339.532 174.308 339.041C174.799 338.551 175.132 337.926 175.268 337.246C175.403 336.566 175.334 335.862 175.068 335.221C174.803 334.581 174.354 334.033 173.777 333.648C173.201 333.263 172.523 333.057 171.83 333.057C170.9 333.057 170.008 333.426 169.351 334.084C168.694 334.741 168.324 335.633 168.324 336.563Z" fill="white"/>
<path d="M217.12 309.588H216.759H211.557L196.385 309.661L146.336 310.014L139.1 310.071H137.315C137.011 310.062 136.707 310.081 136.407 310.127C136.103 310.193 135.812 310.31 135.546 310.473C135.021 310.811 134.639 311.332 134.477 311.936C134.34 312.523 134.244 313.078 134.123 313.649C133.231 318.167 132.363 322.533 131.543 326.681C129.894 334.987 128.415 342.472 127.177 348.759L124.258 363.649C123.921 365.394 123.663 366.761 123.454 367.669C123.374 368.125 123.31 368.479 123.261 368.731C123.221 368.964 123.205 369.084 123.205 369.084C123.205 369.084 123.205 368.972 123.294 368.731C123.382 368.489 123.414 368.136 123.511 367.685L124.315 363.665C125.03 360.144 126.051 355.071 127.322 348.799C128.592 342.528 130.079 335.035 131.744 326.738C132.548 322.581 133.448 318.223 134.349 313.705C134.469 313.142 134.574 312.563 134.694 312.016C134.841 311.481 135.182 311.019 135.651 310.722C135.896 310.565 136.169 310.459 136.455 310.408C136.737 310.367 137.022 310.351 137.307 310.36H139.092L146.328 310.304L196.377 309.862L211.549 309.693L215.673 309.637H216.75L217.12 309.588Z" fill="#263238"/>
<path d="M42.6504 365.145H42.7951L43.2052 365.185L44.8132 365.313C46.196 365.426 48.19 365.563 50.6663 365.707C55.6028 365.997 62.4449 366.294 69.9623 366.423C77.4797 366.552 84.3699 366.479 89.3145 366.351C91.7909 366.286 93.7928 366.222 95.1757 366.158L96.7837 366.077H97.2018H97.3385H96.7837H95.1757L89.3145 366.174C84.3619 366.246 77.5199 366.278 69.9703 366.174C62.4207 366.069 55.5868 365.78 50.6743 365.547L44.8212 365.249L43.2132 365.177H42.6504V365.145Z" fill="white"/>
<defs>
<linearGradient id="paint0_linear_551_27998" x1="185.395" y1="162.549" x2="305.609" y2="162.549" gradientUnits="userSpaceOnUse">
<stop stop-color="#08E6FD"/>
<stop offset="0.5" stop-color="#00A5FD"/>
<stop offset="1" stop-color="#001EEE"/>
</linearGradient>
<linearGradient id="paint1_linear_551_27998" x1="379.393" y1="156.044" x2="392.313" y2="156.044" gradientUnits="userSpaceOnUse">
<stop stop-color="#08E6FD"/>
<stop offset="0.5" stop-color="#00A5FD"/>
<stop offset="1" stop-color="#001EEE"/>
</linearGradient>
<linearGradient id="paint2_linear_551_27998" x1="427.527" y1="179.485" x2="576.822" y2="179.485" gradientUnits="userSpaceOnUse">
<stop stop-color="#08E6FD"/>
<stop offset="0.5" stop-color="#00A5FD"/>
<stop offset="1" stop-color="#001EEE"/>
</linearGradient>
<linearGradient id="paint3_linear_551_27998" x1="528.523" y1="213.864" x2="580.056" y2="213.864" gradientUnits="userSpaceOnUse">
<stop stop-color="#08E6FD"/>
<stop offset="0.5" stop-color="#00A5FD"/>
<stop offset="1" stop-color="#001EEE"/>
</linearGradient>
<linearGradient id="paint4_linear_551_27998" x1="41.6875" y1="315.273" x2="135.97" y2="315.273" gradientUnits="userSpaceOnUse">
<stop stop-color="#08E6FD"/>
<stop offset="0.5" stop-color="#00A5FD"/>
<stop offset="1" stop-color="#001EEE"/>
</linearGradient>
<linearGradient id="paint5_linear_551_27998" x1="128.584" y1="319.807" x2="166.139" y2="319.807" gradientUnits="userSpaceOnUse">
<stop stop-color="#08E6FD"/>
<stop offset="0.5" stop-color="#00A5FD"/>
<stop offset="1" stop-color="#001EEE"/>
</linearGradient>
<linearGradient id="paint6_linear_551_27998" x1="30.002" y1="313.659" x2="69.7237" y2="313.659" gradientUnits="userSpaceOnUse">
<stop stop-color="#08E6FD"/>
<stop offset="0.5" stop-color="#00A5FD"/>
<stop offset="1" stop-color="#001EEE"/>
</linearGradient>
</defs>
</svg>
