<svg width="49" height="48" viewBox="0 0 49 48" fill="none" xmlns="http://www.w3.org/2000/svg">
<g clip-path="url(#clip0_274_57189)">
<path d="M20.1352 28.5249L18.5065 30.364C17.2479 31.6226 15.6442 32.4798 13.8984 32.8271C12.1526 33.1743 10.343 32.9961 8.69843 32.3149C7.05389 31.6337 5.64828 30.4802 4.65935 29.0001C3.67042 27.5201 3.14258 25.78 3.14258 24C3.14258 22.22 3.67042 20.4799 4.65935 18.9999C5.64828 17.5198 7.05389 16.3663 8.69843 15.6851C10.343 15.0039 12.1526 14.8257 13.8984 15.1729C15.6442 15.5202 17.2479 16.3774 18.5065 17.636L29.7786 30.364C31.0373 31.6226 32.6409 32.4798 34.3868 32.8271C36.1326 33.1743 37.9422 32.9961 39.5867 32.3149C41.2313 31.6337 42.6369 30.4802 43.6258 29.0001C44.6147 27.5201 45.1426 25.78 45.1426 24C45.1426 22.22 44.6147 20.4799 43.6258 18.9999C42.6369 17.5198 41.2313 16.3663 39.5867 15.6851C37.9422 15.0039 36.1326 14.8257 34.3868 15.1729C32.6409 15.5202 31.0373 16.3774 29.7786 17.636L28.1499 19.4751" stroke="white" stroke-width="2" stroke-linecap="round" stroke-linejoin="round"/>
</g>
<defs>
<clipPath id="clip0_274_57189">
<rect width="48" height="48" fill="white" transform="translate(0.142578)"/>
</clipPath>
</defs>
</svg>
