<svg width="49" height="48" viewBox="0 0 49 48" fill="none" xmlns="http://www.w3.org/2000/svg">
<path d="M24.1423 2.18604C23.6404 2.18621 23.1391 2.29785 22.676 2.52166L7.83353 9.68791C6.91026 10.1334 6.2389 10.9773 6.01103 11.9773L2.34353 28.0892C2.11689 29.0869 2.35573 30.1359 2.99228 30.9373L13.2673 43.856C13.9068 44.6605 14.8803 45.1292 15.9073 45.1292H32.3773C33.4042 45.1292 34.3777 44.6605 35.0173 43.856L45.2923 30.9392V30.9373C45.9287 30.1366 46.1692 29.0887 45.9429 28.091C45.9429 28.0904 45.9429 28.0898 45.9429 28.0892L42.2735 11.9773C42.2735 11.9767 42.2735 11.976 42.2735 11.9754C42.0457 10.977 41.3747 10.1343 40.451 9.68791L25.6104 2.52166C25.6098 2.52103 25.6092 2.52041 25.6085 2.51979C25.1455 2.29695 24.6442 2.18586 24.1423 2.18604ZM24.1423 4.10604C24.3579 4.1061 24.5731 4.15399 24.7742 4.25041L39.6167 11.4167C40.0158 11.6096 40.3037 11.9709 40.4023 12.4029L44.0698 28.5148C44.1678 28.947 44.0652 29.3976 43.7904 29.7429L33.5154 42.6617C33.2391 43.0092 32.8211 43.2092 32.3773 43.2092H15.9073C15.4635 43.2092 15.0473 43.0092 14.771 42.6617L4.49603 29.7429C4.22058 29.3961 4.11694 28.9455 4.21478 28.5148L7.88416 12.4048C7.98269 11.9724 8.27022 11.6104 8.66791 11.4185C8.66791 11.4179 8.66791 11.4173 8.66791 11.4167L23.5104 4.25041C23.7104 4.15372 23.9266 4.10597 24.1423 4.10604ZM24.1348 8.14479C23.9993 8.14509 23.8618 8.17209 23.7298 8.22729C23.2018 8.45769 22.9519 9.07179 23.1823 9.59979C23.4031 10.1182 23.4791 10.6358 23.5367 11.1542C23.5559 11.423 23.5669 11.6825 23.5573 11.9417C23.5861 12.2009 23.4512 12.4606 23.2592 12.7198C23.0576 12.979 23.0386 13.2387 23.0098 13.4979C20.3753 13.7565 18.0037 14.911 16.1904 16.646L16.1735 16.6367C15.9527 16.4927 15.7427 16.3481 15.4067 16.3385C15.0899 16.3193 14.8016 16.2624 14.6192 16.0704C14.4176 15.9168 14.2166 15.7447 14.0342 15.5623C13.6598 15.1975 13.3034 14.8034 13.0442 14.3042C12.9194 14.0642 12.6888 13.8712 12.4104 13.7848C11.8536 13.6312 11.278 13.948 11.1148 14.5048C10.9516 15.052 11.278 15.6374 11.8348 15.791C12.3724 15.9542 12.8238 16.223 13.2654 16.511C13.4766 16.655 13.6788 16.8089 13.8804 16.9817C14.1012 17.1257 14.2159 17.3945 14.3023 17.7017C14.3656 18.0094 14.5422 18.1874 14.7148 18.3598C13.4007 20.2311 12.6223 22.5052 12.6223 24.9598C12.6223 25.3658 12.6448 25.7663 12.686 26.1617C12.4707 26.237 12.2575 26.3188 12.0748 26.5348C11.8636 26.7748 11.6327 26.9656 11.3735 26.9848C11.1239 27.052 10.8659 27.1004 10.6067 27.1292C10.0883 27.1964 9.56011 27.235 9.01291 27.1198C8.74411 27.0718 8.44666 27.1289 8.20666 27.3017C7.73626 27.6281 7.63088 28.2806 7.95728 28.751C8.29328 29.2214 8.94563 29.3383 9.41603 29.0023C9.87683 28.6759 10.3662 28.4924 10.8654 28.3292C11.115 28.2524 11.3656 28.1859 11.6248 28.1379C11.8744 28.0515 12.1522 28.1275 12.4498 28.2523C12.6971 28.3799 12.916 28.3697 13.1323 28.3479C13.9773 31.0875 15.825 33.3828 18.2379 34.8317C18.1555 35.0623 18.0781 35.3027 18.1517 35.606C18.2093 35.9228 18.2186 36.2215 18.0842 36.4423C17.9786 36.6823 17.864 36.9113 17.7392 37.1417C17.4704 37.5833 17.1828 38.0252 16.7604 38.4092C16.5588 38.5916 16.4231 38.8503 16.4135 39.1479C16.3943 39.7239 16.8463 40.205 17.4223 40.2242C17.9983 40.2434 18.4887 39.7914 18.5079 39.2154C18.5175 38.649 18.6707 38.1509 18.8435 37.6517C18.9299 37.4117 19.0358 37.1714 19.151 36.941C19.2374 36.6914 19.467 36.5078 19.7454 36.3542C20.0227 36.211 20.1475 36.0086 20.2723 35.7954C21.484 36.2298 22.7832 36.4798 24.1423 36.4798C25.5246 36.4798 26.845 36.2215 28.0742 35.7729C28.2042 35.9948 28.3378 36.2058 28.616 36.3542C28.8944 36.5174 29.124 36.6914 29.2104 36.941C29.3256 37.181 29.4221 37.421 29.5085 37.661C29.6813 38.1602 29.825 38.6584 29.8442 39.2248C29.8442 39.5032 29.959 39.7732 30.1798 39.9748C30.6118 40.3588 31.2656 40.3297 31.6592 39.9073C32.0432 39.4753 32.0141 38.8215 31.5917 38.4279C31.1693 38.0535 30.8815 37.6022 30.6223 37.151C30.4975 36.9302 30.3829 36.6914 30.2773 36.461C30.1429 36.2306 30.152 35.9416 30.2192 35.6248C30.296 35.2984 30.2097 35.0588 30.1329 34.8092L30.1254 34.7848C32.5191 33.3214 34.3425 31.0192 35.1692 28.2804L35.201 28.2823C35.4698 28.3015 35.7287 28.3292 36.0167 28.166C36.3047 28.0316 36.5939 27.9542 36.8435 28.031C37.0931 28.0694 37.3514 28.127 37.601 28.1942C38.1002 28.3382 38.6006 28.5111 39.071 28.8279C39.3014 28.9719 39.5893 29.0395 39.8773 28.9723C40.4437 28.8475 40.799 28.2916 40.6742 27.7348C40.5494 27.1684 39.9918 26.8131 39.4254 26.9379C38.8686 27.0627 38.3503 27.0422 37.8223 26.9942C37.5631 26.9654 37.3127 26.928 37.0535 26.8704C36.7943 26.8512 36.5656 26.6789 36.3448 26.4485C36.124 26.1893 35.8744 26.1222 35.6248 26.0454L35.6079 26.0398C35.6412 25.6837 35.6623 25.3244 35.6623 24.9598C35.6623 22.5797 34.9356 20.3649 33.6935 18.5267C33.8756 18.335 34.0596 18.1531 34.1267 17.8273C34.2131 17.5201 34.3277 17.2513 34.5485 17.1073C34.7405 16.9345 34.9523 16.7809 35.1635 16.6273C35.5955 16.3393 36.0472 16.0609 36.5848 15.9073C36.8536 15.8305 37.0823 15.6473 37.2167 15.3785C37.4855 14.8697 37.2851 14.2371 36.7667 13.9779C36.2579 13.7091 35.6234 13.9095 35.3642 14.4279C35.105 14.9271 34.7502 15.3212 34.3854 15.686C34.1934 15.8684 34.002 16.0422 33.8004 16.2054C33.618 16.3974 33.3297 16.4543 33.0129 16.4735C32.6769 16.4831 32.465 16.637 32.2442 16.781C30.4135 14.9675 27.9799 13.7634 25.2748 13.4979C25.246 13.2387 25.227 12.979 25.0254 12.7198C24.8334 12.4606 24.6985 12.2009 24.7273 11.9417C24.7177 11.6825 24.7287 11.423 24.7479 11.1542C24.8055 10.6358 24.8815 10.1182 25.1023 9.59979C25.2079 9.35019 25.2175 9.05319 25.1023 8.77479C24.9295 8.37879 24.5411 8.14389 24.1348 8.14479ZM22.7585 15.4704L22.7117 15.8398C22.5773 16.8766 22.4814 17.923 22.3854 18.9598C22.3278 19.507 22.2794 20.0645 22.241 20.6117C21.7706 20.2757 21.3002 19.9197 20.801 19.6029C19.937 19.0173 19.0726 18.431 18.1798 17.8742L17.8779 17.6867C19.2281 16.5232 20.9062 15.7371 22.7585 15.4704ZM25.526 15.4704C27.4542 15.748 29.1907 16.5924 30.5679 17.8348L30.2473 18.0373C29.3641 18.6037 28.5107 19.1898 27.6467 19.7754C27.3011 20.0058 26.9643 20.246 26.6379 20.486C26.3787 20.6684 26.0234 20.5047 26.0042 20.1879C25.9754 19.7751 25.9376 19.3726 25.8992 18.9598C25.8032 17.923 25.7073 16.8766 25.5729 15.8398L25.526 15.4704ZM16.061 19.7829L16.3667 20.1017C17.0963 20.8601 17.836 21.59 18.5848 22.3292C18.9016 22.646 19.2184 22.9447 19.5448 23.2423C19.7752 23.4535 19.6886 23.8271 19.391 23.9135C18.9206 24.0575 18.4496 24.1912 17.9792 24.3448C16.9904 24.6712 15.9923 24.9796 15.0035 25.3348L14.5685 25.4867C14.559 25.311 14.5423 25.1379 14.5423 24.9598C14.5423 23.0491 15.104 21.2765 16.061 19.7829ZM32.3379 19.9723C33.2229 21.4262 33.7423 23.1285 33.7423 24.9598C33.7423 25.1201 33.7256 25.2758 33.7179 25.4342L33.3767 25.3254C32.3783 24.999 31.3809 24.719 30.3729 24.431C29.7201 24.239 29.0663 24.0674 28.4135 23.9042C28.9031 23.4338 29.4131 22.9723 29.8835 22.4923C30.6227 21.7531 31.361 21.014 32.081 20.246L32.3379 19.9723ZM23.5479 23.0398H24.7179C24.9003 23.0398 25.0738 23.1266 25.1698 23.261L25.9179 24.2023C26.0235 24.3271 26.063 24.5078 26.0342 24.671L25.7642 25.8335C25.7354 26.0159 25.6103 26.1596 25.4567 26.246L24.3823 26.7448C24.2287 26.8312 24.0371 26.8312 23.8835 26.7448L22.8073 26.246C22.6537 26.1596 22.519 26.0159 22.4998 25.8335L22.2317 24.671C22.2029 24.5078 22.2423 24.3271 22.3479 24.2023L23.096 23.261C23.192 23.1266 23.3655 23.0398 23.5479 23.0398ZM20.081 27.6185C20.3786 27.5705 20.62 27.8689 20.5048 28.1473C20.3224 28.6273 20.1486 29.0979 19.9854 29.5779C19.6302 30.5667 19.2843 31.5458 18.9579 32.5442L18.8267 32.9567C17.1181 31.8206 15.8058 30.1488 15.1067 28.181L15.6167 28.1379C16.6631 28.0419 17.6903 27.9158 18.7367 27.791C19.1879 27.743 19.6298 27.6761 20.081 27.6185ZM28.376 27.7535C28.8272 27.8015 29.2692 27.8501 29.7204 27.8885C30.7668 27.9845 31.8034 28.0801 32.8498 28.1473L33.1835 28.166C32.497 30.1087 31.2136 31.7647 29.5404 32.9023L29.4317 32.5535C29.1149 31.5551 28.7702 30.5665 28.4342 29.5873C28.2806 29.1457 28.1267 28.7143 27.9635 28.2823C27.8579 28.0039 28.088 27.7151 28.376 27.7535ZM24.2135 29.6473C24.3503 29.6473 24.4874 29.7162 24.5642 29.8554C24.7754 30.2586 24.9975 30.6524 25.2279 31.046C25.7463 31.9484 26.263 32.861 26.8198 33.7442L27.0467 34.1117C26.1307 34.4008 25.1555 34.5598 24.1423 34.5598C23.1595 34.5598 22.2123 34.4106 21.3204 34.1379L21.5604 33.7535C22.1172 32.8703 22.6449 31.9672 23.1729 31.0648C23.4129 30.6712 23.644 30.2682 23.8648 29.8554C23.9416 29.7162 24.0767 29.6473 24.2135 29.6473Z" fill="white"/>
</svg>
