<svg width="49" height="48" viewBox="0 0 49 48" fill="none" xmlns="http://www.w3.org/2000/svg">
<g clip-path="url(#clip0_274_57231)">
<path d="M36.7148 12.5714C36.8279 12.5714 36.9383 12.5378 37.0323 12.4751C37.1263 12.4123 37.1995 12.323 37.2428 12.2186C37.286 12.1142 37.2973 11.9993 37.2753 11.8884C37.2532 11.7776 37.1988 11.6758 37.1189 11.5959C37.039 11.516 36.9372 11.4615 36.8263 11.4395C36.7155 11.4174 36.6006 11.4287 36.4962 11.472C36.3918 11.5152 36.3025 11.5885 36.2397 11.6825C36.1769 11.7764 36.1434 11.8869 36.1434 11.9999C36.1436 12.1514 36.2038 12.2967 36.311 12.4038C36.4181 12.5109 36.5633 12.5712 36.7148 12.5714ZM36.7148 11.7142C36.7714 11.7142 36.8266 11.731 36.8736 11.7624C36.9206 11.7938 36.9572 11.8384 36.9788 11.8906C37.0004 11.9428 37.0061 12.0002 36.9951 12.0557C36.984 12.1111 36.9568 12.162 36.9169 12.202C36.8769 12.2419 36.826 12.2691 36.7706 12.2802C36.7152 12.2912 36.6577 12.2855 36.6055 12.2639C36.5533 12.2423 36.5087 12.2056 36.4773 12.1587C36.4459 12.1117 36.4291 12.0564 36.4291 11.9999C36.4292 11.9242 36.4593 11.8515 36.5129 11.798C36.5665 11.7444 36.6391 11.7143 36.7148 11.7142ZM45.2863 2.4285C45.3993 2.4285 45.5098 2.39499 45.6037 2.3322C45.6977 2.26941 45.771 2.18016 45.8142 2.07575C45.8575 1.97133 45.8688 1.85644 45.8467 1.74559C45.8247 1.63475 45.7702 1.53293 45.6903 1.45301C45.6104 1.3731 45.5086 1.31867 45.3978 1.29662C45.2869 1.27458 45.172 1.28589 45.0676 1.32914C44.9632 1.37239 44.8739 1.44563 44.8111 1.5396C44.7484 1.63358 44.7148 1.74406 44.7148 1.85707C44.715 2.00857 44.7753 2.15382 44.8824 2.26094C44.9895 2.36807 45.1348 2.42833 45.2863 2.4285ZM45.2863 1.57136C45.3428 1.57136 45.398 1.58812 45.445 1.61951C45.492 1.65091 45.5286 1.69553 45.5502 1.74774C45.5719 1.79994 45.5775 1.85739 45.5665 1.91281C45.5555 1.96824 45.5283 2.01915 45.4883 2.0591C45.4483 2.09906 45.3974 2.12627 45.342 2.1373C45.2866 2.14832 45.2291 2.14266 45.1769 2.12104C45.1247 2.09941 45.0801 2.06279 45.0487 2.01581C45.0173 1.96882 45.0006 1.91358 45.0006 1.85707C45.0006 1.78132 45.0308 1.70869 45.0843 1.65513C45.1379 1.60156 45.2105 1.57143 45.2863 1.57136ZM25.2863 3.57136C25.3993 3.57136 25.5098 3.53785 25.6037 3.47506C25.6977 3.41227 25.771 3.32302 25.8142 3.21861C25.8575 3.11419 25.8688 2.9993 25.8467 2.88845C25.8247 2.7776 25.7702 2.67579 25.6903 2.59587C25.6104 2.51595 25.5086 2.46153 25.3978 2.43948C25.2869 2.41743 25.172 2.42875 25.0676 2.472C24.9632 2.51525 24.8739 2.58849 24.8111 2.68246C24.7484 2.77643 24.7148 2.88691 24.7148 2.99993C24.715 3.15143 24.7753 3.29667 24.8824 3.4038C24.9895 3.51093 25.1348 3.57119 25.2863 3.57136ZM25.2863 2.71422C25.3428 2.71422 25.398 2.73097 25.445 2.76237C25.492 2.79376 25.5286 2.83838 25.5502 2.89059C25.5719 2.9428 25.5775 3.00025 25.5665 3.05567C25.5555 3.11109 25.5283 3.162 25.4883 3.20196C25.4483 3.24192 25.3974 3.26913 25.342 3.28015C25.2866 3.29118 25.2291 3.28552 25.1769 3.2639C25.1247 3.24227 25.0801 3.20565 25.0487 3.15866C25.0173 3.11168 25.0006 3.05644 25.0006 2.99993C25.0006 2.92418 25.0308 2.85155 25.0843 2.79798C25.1379 2.74442 25.2105 2.71429 25.2863 2.71422ZM3.57199 6.85707C3.40246 6.85707 3.23674 6.90734 3.09578 7.00153C2.95483 7.09571 2.84497 7.22958 2.78009 7.3862C2.71522 7.54282 2.69824 7.71517 2.73131 7.88144C2.76439 8.04771 2.84602 8.20043 2.9659 8.32031C3.08577 8.44018 3.2385 8.52182 3.40477 8.55489C3.57104 8.58796 3.74338 8.57099 3.9 8.50611C4.05662 8.44124 4.19049 8.33138 4.28468 8.19042C4.37886 8.04946 4.42913 7.88374 4.42913 7.71422C4.42887 7.48697 4.33848 7.2691 4.17779 7.10841C4.0171 6.94772 3.79924 6.85733 3.57199 6.85707ZM3.57199 8.14279C3.48722 8.14279 3.40436 8.11765 3.33389 8.07056C3.26341 8.02347 3.20848 7.95653 3.17604 7.87822C3.1436 7.79991 3.13511 7.71374 3.15165 7.63061C3.16819 7.54747 3.209 7.47111 3.26894 7.41117C3.32888 7.35123 3.40524 7.31042 3.48838 7.29388C3.57151 7.27734 3.65768 7.28583 3.73599 7.31827C3.81431 7.35071 3.88124 7.40564 3.92833 7.47611C3.97542 7.54659 4.00056 7.62945 4.00056 7.71422C4.00045 7.82785 3.95526 7.93679 3.87491 8.01714C3.79456 8.09749 3.68562 8.14268 3.57199 8.14279ZM45.0006 14.2856C45.0006 14.1161 44.9503 13.9504 44.8561 13.8094C44.7619 13.6685 44.6281 13.5586 44.4714 13.4937C44.3148 13.4289 44.1425 13.4119 43.9762 13.445C43.8099 13.478 43.6572 13.5597 43.5373 13.6796C43.4174 13.7994 43.3358 13.9522 43.3027 14.1184C43.2697 14.2847 43.2866 14.457 43.3515 14.6137C43.4164 14.7703 43.5263 14.9041 43.6672 14.9983C43.8082 15.0925 43.9739 15.1428 44.1434 15.1428C44.3707 15.1425 44.5885 15.0521 44.7492 14.8914C44.9099 14.7308 45.0003 14.5129 45.0006 14.2856ZM44.1434 14.7142C44.0587 14.7142 43.9758 14.6891 43.9053 14.642C43.8348 14.5949 43.7799 14.528 43.7475 14.4497C43.715 14.3713 43.7065 14.2852 43.7231 14.202C43.7396 14.1189 43.7804 14.0425 43.8404 13.9826C43.9003 13.9227 43.9767 13.8818 44.0598 13.8653C44.1429 13.8488 44.2291 13.8573 44.3074 13.8897C44.3857 13.9221 44.4527 13.9771 44.4998 14.0475C44.5468 14.118 44.572 14.2009 44.572 14.2856C44.5719 14.3993 44.5267 14.5082 44.4463 14.5886C44.366 14.6689 44.257 14.7141 44.1434 14.7142ZM10.4291 18.8571C10.5421 18.8571 10.6526 18.8236 10.7466 18.7608C10.8406 18.698 10.9138 18.6087 10.9571 18.5043C11.0003 18.3999 11.0116 18.285 10.9896 18.1742C10.9675 18.0633 10.9131 17.9615 10.8332 17.8816C10.7533 17.8017 10.6515 17.7472 10.5406 17.7252C10.4298 17.7031 10.3149 17.7145 10.2105 17.7577C10.106 17.801 10.0168 17.8742 9.954 17.9682C9.89121 18.0621 9.8577 18.1726 9.8577 18.2856C9.85787 18.4371 9.91813 18.5824 10.0253 18.6895C10.1324 18.7966 10.2776 18.8569 10.4291 18.8571ZM10.4291 17.9999C10.4856 17.9999 10.5409 18.0167 10.5879 18.0481C10.6348 18.0795 10.6715 18.1241 10.6931 18.1763C10.7147 18.2285 10.7204 18.286 10.7094 18.3414C10.6983 18.3968 10.6711 18.4477 10.6312 18.4877C10.5912 18.5276 10.5403 18.5548 10.4849 18.5659C10.4294 18.5769 10.372 18.5712 10.3198 18.5496C10.2676 18.528 10.223 18.4914 10.1916 18.4444C10.1602 18.3974 10.1434 18.3422 10.1434 18.2856C10.1435 18.2099 10.1736 18.1373 10.2272 18.0837C10.2807 18.0301 10.3534 18 10.4291 17.9999Z" fill="white"/>
<path d="M0.714007 42.5716C1.0296 42.5716 1.28544 42.3157 1.28544 42.0001C1.28544 41.6845 1.0296 41.4287 0.714007 41.4287C0.398415 41.4287 0.142578 41.6845 0.142578 42.0001C0.142578 42.3157 0.398415 42.5716 0.714007 42.5716Z" fill="white"/>
<path d="M3.28599 41.4287H2.42885C2.2773 41.4287 2.13195 41.4889 2.02479 41.5961C1.91763 41.7032 1.85742 41.8486 1.85742 42.0001C1.85742 42.1517 1.91763 42.297 2.02479 42.4042C2.13195 42.5114 2.2773 42.5716 2.42885 42.5716H3.28599C3.43755 42.5716 3.58289 42.5114 3.69005 42.4042C3.79722 42.297 3.85742 42.1517 3.85742 42.0001C3.85742 41.8486 3.79722 41.7032 3.69005 41.5961C3.58289 41.4889 3.43755 41.4287 3.28599 41.4287ZM45.8574 41.4287H45.0003C44.8487 41.4287 44.7034 41.4889 44.5962 41.5961C44.4891 41.7032 44.4289 41.8486 44.4289 42.0001C44.4289 42.1517 44.4891 42.297 44.5962 42.4042C44.7034 42.5114 44.8487 42.5716 45.0003 42.5716H45.8574C46.009 42.5716 46.1543 42.5114 46.2615 42.4042C46.3686 42.297 46.4289 42.1517 46.4289 42.0001C46.4289 41.8486 46.3686 41.7032 46.2615 41.5961C46.1543 41.4889 46.009 41.4287 45.8574 41.4287Z" fill="white"/>
<path d="M47.5714 42.5716C47.887 42.5716 48.1429 42.3157 48.1429 42.0001C48.1429 41.6845 47.887 41.4287 47.5714 41.4287C47.2558 41.4287 47 41.6845 47 42.0001C47 42.3157 47.2558 42.5716 47.5714 42.5716Z" fill="white"/>
<path d="M43.2052 41.4287H34.4893C34.819 41.0256 34.9991 40.5209 34.9991 40.0001V8.00012C34.995 7.3899 34.7487 6.80629 34.3143 6.37765C33.88 5.949 33.2932 5.71043 32.6829 5.7144H15.6009C14.9907 5.71044 14.4039 5.94901 13.9695 6.37765C13.5352 6.80629 13.2889 7.3899 13.2848 8.00012V40.0001C13.2847 40.5209 13.4648 41.0256 13.7945 41.4287H5.07868C4.99739 41.4181 4.91477 41.4249 4.83633 41.4488C4.75789 41.4726 4.68545 41.5129 4.62384 41.567C4.56222 41.6211 4.51286 41.6877 4.47904 41.7624C4.44523 41.8371 4.42773 41.9181 4.42773 42.0001C4.42773 42.0821 4.44523 42.1631 4.47904 42.2378C4.51286 42.3125 4.56222 42.3791 4.62384 42.4332C4.68545 42.4873 4.75789 42.5276 4.83633 42.5515C4.91477 42.5753 4.99739 42.5822 5.07868 42.5715H43.2052C43.2864 42.5822 43.3691 42.5753 43.4475 42.5515C43.5259 42.5276 43.5984 42.4873 43.66 42.4332C43.7216 42.3791 43.771 42.3125 43.8048 42.2378C43.8386 42.1631 43.8561 42.0821 43.8561 42.0001C43.8561 41.9181 43.8386 41.8371 43.8048 41.7624C43.771 41.6877 43.7216 41.6211 43.66 41.567C43.5984 41.5129 43.5259 41.4726 43.4475 41.4488C43.3691 41.4249 43.2864 41.4181 43.2052 41.4287ZM14.4276 8.00012C14.432 7.69311 14.558 7.40038 14.778 7.18613C14.9979 6.97189 15.2939 6.85362 15.6009 6.85726H32.6829C32.99 6.85359 33.2859 6.97185 33.5059 7.1861C33.7258 7.40035 33.8518 7.6931 33.8562 8.00012V10.2858H14.4276V8.00012ZM14.4276 11.4287H33.8562V36.5715H28.1419V22.0001C28.1419 21.8486 28.0817 21.7032 27.9746 21.5961C27.8674 21.4889 27.722 21.4287 27.5705 21.4287C27.4189 21.4287 27.2736 21.4889 27.1664 21.5961C27.0593 21.7032 26.9991 21.8486 26.9991 22.0001V36.5715H25.8562V25.143C25.8562 24.9914 25.796 24.8461 25.6888 24.7389C25.5817 24.6318 25.4363 24.5715 25.2848 24.5715C25.1332 24.5715 24.9879 24.6318 24.8807 24.7389C24.7735 24.8461 24.7133 24.9914 24.7133 25.143V36.5715H23.5705V22.8573C23.5705 22.7057 23.5103 22.5604 23.4031 22.4532C23.296 22.346 23.1506 22.2858 22.9991 22.2858C22.8475 22.2858 22.7022 22.346 22.595 22.4532C22.4878 22.5604 22.4276 22.7057 22.4276 22.8573V36.5715H21.2848V27.4287C21.2848 27.2771 21.2246 27.1318 21.1174 27.0246C21.0102 26.9175 20.8649 26.8573 20.7133 26.8573C20.5618 26.8573 20.4164 26.9175 20.3093 27.0246C20.2021 27.1318 20.1419 27.2771 20.1419 27.4287V36.5715H14.4276V11.4287ZM14.4276 37.7144H33.8562V40.0001C33.8518 40.3071 33.7258 40.5999 33.5059 40.8141C33.2859 41.0284 32.99 41.1466 32.6829 41.143H15.6009C15.2939 41.1466 14.9979 41.0284 14.778 40.8141C14.558 40.5999 14.432 40.3071 14.4276 40.0001V37.7144Z" fill="white"/>
<path d="M22.2254 17.8639C22.2374 17.8643 22.2486 17.8674 22.2607 17.8674C22.3671 17.8659 22.4727 17.8485 22.5739 17.8156L24.96 19.3141C24.9859 19.5889 25.1167 19.8432 25.3252 20.024C25.5338 20.2048 25.804 20.2983 26.0797 20.285C26.3554 20.2717 26.6154 20.1526 26.8055 19.9525C26.9957 19.7524 27.1013 19.4867 27.1006 19.2106C27.1006 19.1954 27.0967 19.1813 27.0961 19.1662L29.6787 16.9138C29.7153 16.9194 29.7522 16.9231 29.7892 16.9249C30.0217 16.9288 30.2494 16.8584 30.4392 16.7241C30.629 16.5897 30.771 16.3984 30.8446 16.1778C30.9183 15.9573 30.9197 15.719 30.8487 15.4975C30.7777 15.2761 30.638 15.0831 30.4499 14.9464C30.2617 14.8098 30.0349 14.7367 29.8023 14.7378C29.5698 14.7389 29.3437 14.814 29.1568 14.9523C28.9698 15.0907 28.8319 15.285 28.7629 15.507C28.6939 15.7291 28.6975 15.9674 28.7732 16.1873L26.443 18.2194C26.2881 18.1536 26.1198 18.1256 25.952 18.1378C25.7841 18.1499 25.6216 18.2019 25.4778 18.2894L23.3218 16.9357C23.3299 16.8881 23.3348 16.8401 23.3363 16.7918C23.3367 16.6317 23.3013 16.4736 23.2327 16.3289C23.1642 16.1843 23.0642 16.0567 22.9401 15.9556C22.816 15.8545 22.6709 15.7824 22.5153 15.7445C22.3598 15.7066 22.1977 15.7039 22.041 15.7366C21.8843 15.7693 21.7369 15.8366 21.6095 15.9335C21.4821 16.0304 21.3779 16.1545 21.3046 16.2969C21.2313 16.4392 21.1906 16.596 21.1856 16.756C21.1806 16.9161 21.2114 17.0752 21.2758 17.2217L18.6121 20.5666C18.5738 20.5606 18.5352 20.5567 18.4965 20.5549C18.2638 20.5515 18.0362 20.6225 17.8467 20.7575C17.6572 20.8926 17.5159 21.0846 17.4432 21.3057C17.3706 21.5267 17.3705 21.7652 17.4429 21.9863C17.5154 22.2074 17.6566 22.3996 17.8459 22.5348C18.0353 22.6701 18.2629 22.7412 18.4955 22.738C18.7282 22.7347 18.9537 22.6572 19.1392 22.5168C19.3248 22.3763 19.4605 22.1803 19.5268 21.9572C19.593 21.7342 19.5863 21.4958 19.5075 21.2769L22.2254 17.8639Z" fill="white"/>
<path d="M3.97925 14.8867L4.24896 14.5321L4.07868 14.4355L3.90553 14.8327H3.89982L3.72411 14.4384L3.55068 14.5375L3.81753 14.8838V14.8895L3.40039 14.8355V15.0284L3.82039 14.9747V14.9804L3.55068 15.3264L3.71239 15.4287L3.89725 15.0284H3.90268L4.07296 15.4258L4.25182 15.3235L3.97925 14.983V14.9775L4.40782 15.0284V14.8355L3.97925 14.8924V14.8867Z" fill="white"/>
<path d="M10.643 29.4604L10.9113 29.1075L10.7418 29.0112L10.5695 29.4067H10.5638L10.3887 29.0141L10.2161 29.1129L10.4818 29.4578V29.4632L10.0664 29.4095V29.6018L10.4847 29.5481V29.5538L10.2161 29.8984L10.3773 30.0001L10.561 29.6018H10.5664L10.7361 29.9972L10.9141 29.8955L10.643 29.5564V29.5509L11.0693 29.6018V29.4095L10.643 29.4661V29.4604Z" fill="white"/>
<path d="M33.5081 0.876122L33.2632 1.19012L33.4101 1.28269L33.5775 0.919836H33.5827L33.737 1.28012L33.8992 1.18755L33.6521 0.878407V0.873264L34.0407 0.919836V0.744693L33.6521 0.796122V0.790979L33.8967 0.469264L33.7424 0.381836L33.5852 0.742122H33.5801L33.4207 0.384122L33.2632 0.474407L33.5055 0.788407V0.79355L33.127 0.744693V0.919836L33.5081 0.870979V0.876122Z" fill="white"/>
<path d="M41.3175 18.4411V18.2405L40.8718 18.2994V18.2934L41.1524 17.9245L40.9752 17.8242L40.7952 18.2374H40.7892L40.6064 17.8271L40.4261 17.9305L40.7035 18.2905V18.2965L40.2695 18.2405V18.4411L40.7064 18.3851V18.3911L40.4261 18.7511L40.5941 18.8574L40.7864 18.4411H40.7921L40.9692 18.8542L41.1552 18.7482L40.8718 18.3939V18.3879L41.3175 18.4411Z" fill="white"/>
<path d="M36.8718 26.2934L37.1524 25.9245L36.9752 25.8242L36.7952 26.2374H36.7892L36.6064 25.8271L36.4261 25.9305L36.7035 26.2905V26.2965L36.2695 26.2405V26.4411L36.7064 26.3851V26.3911L36.4261 26.7511L36.5941 26.8574L36.7864 26.4411H36.7921L36.9692 26.8542L37.1552 26.7482L36.8718 26.3939V26.3879L37.3175 26.4411V26.2405L36.8718 26.2994V26.2934Z" fill="white"/>
<path d="M7.15697 2.57901L7.43754 2.21015L7.2604 2.10986L7.0804 2.52301H7.0744L6.89154 2.11272L6.71126 2.21615L6.98869 2.57615V2.58215L6.55469 2.52615V2.72672L6.99155 2.67072V2.67672L6.71126 3.03672L6.87926 3.14301L7.07154 2.72672H7.07726L7.2544 3.13986L7.4404 3.03386L7.15697 2.67958V2.67358L7.60269 2.72672V2.52615L7.15697 2.58501V2.57901Z" fill="white"/>
<path d="M15.2202 1.9945L14.9285 2.36907L15.1033 2.47964L15.3033 2.0465H15.3093L15.4936 2.4765L15.6871 2.36593L15.3922 1.99736V1.99136L15.8559 2.0465V1.83764L15.3922 1.89907V1.89307L15.6842 1.50907L15.4999 1.40479L15.3125 1.8345H15.3062L15.1159 1.40764L14.9285 1.51536L15.2171 1.88993V1.89621L14.7656 1.83764V2.0465L15.2202 1.98821V1.9945Z" fill="white"/>
<path d="M33.9014 44H31.5278C31.3841 44.0115 31.2501 44.0767 31.1523 44.1826C31.0546 44.2885 31.0003 44.4273 31.0003 44.5714C31.0003 44.7155 31.0546 44.8544 31.1523 44.9603C31.2501 45.0662 31.3841 45.1313 31.5278 45.1429H33.9014C34.045 45.1313 34.1791 45.0662 34.2768 44.9603C34.3746 44.8544 34.4288 44.7155 34.4288 44.5714C34.4288 44.4273 34.3746 44.2885 34.2768 44.1826C34.1791 44.0767 34.045 44.0115 33.9014 44ZM16.7585 44H14.3849C14.2412 44.0115 14.1072 44.0767 14.0094 44.1826C13.9117 44.2885 13.8574 44.4273 13.8574 44.5714C13.8574 44.7155 13.9117 44.8544 14.0094 44.9603C14.1072 45.0662 14.2412 45.1313 14.3849 45.1429H16.7585C16.9022 45.1313 17.0362 45.0662 17.134 44.9603C17.2317 44.8544 17.286 44.7155 17.286 44.5714C17.286 44.4273 17.2317 44.2885 17.134 44.1826C17.0362 44.0767 16.9022 44.0115 16.7585 44ZM29.8574 44H18.4289C18.2773 44 18.132 44.0602 18.0248 44.1674C17.9176 44.2745 17.8574 44.4199 17.8574 44.5714C17.8574 44.723 17.9176 44.8683 18.0248 44.9755C18.132 45.0827 18.2773 45.1429 18.4289 45.1429H22.9831V45.7143H20.7146C20.563 45.7143 20.4177 45.7745 20.3105 45.8817C20.2033 45.9888 20.1431 46.1342 20.1431 46.2857C20.1431 46.4373 20.2033 46.5826 20.3105 46.6898C20.4177 46.7969 20.563 46.8571 20.7146 46.8571H27.8574C28.009 46.8571 28.1543 46.7969 28.2615 46.6898C28.3687 46.5826 28.4289 46.4373 28.4289 46.2857C28.4289 46.1342 28.3687 45.9888 28.2615 45.8817C28.1543 45.7745 28.009 45.7143 27.8574 45.7143H25.3032V45.1429H29.8574C30.009 45.1429 30.1543 45.0827 30.2615 44.9755C30.3687 44.8683 30.4289 44.723 30.4289 44.5714C30.4289 44.4199 30.3687 44.2745 30.2615 44.1674C30.1543 44.0602 30.009 44 29.8574 44ZM21.286 40H27.0003C27.1518 40 27.2972 39.9398 27.4043 39.8326C27.5115 39.7255 27.5717 39.5801 27.5717 39.4286C27.5717 39.277 27.5115 39.1317 27.4043 39.0245C27.2972 38.9173 27.1518 38.8571 27.0003 38.8571H21.286C21.1344 38.8571 20.9891 38.9173 20.8819 39.0245C20.7748 39.1317 20.7146 39.277 20.7146 39.4286C20.7146 39.5801 20.7748 39.7255 20.8819 39.8326C20.9891 39.9398 21.1344 40 21.286 40ZM21.8574 9.14286H26.4289C26.5804 9.14286 26.7258 9.08265 26.8329 8.97549C26.9401 8.86833 27.0003 8.72298 27.0003 8.57143C27.0003 8.41988 26.9401 8.27453 26.8329 8.16737C26.7258 8.0602 26.5804 8 26.4289 8H21.8574C21.7059 8 21.5605 8.0602 21.4534 8.16737C21.3462 8.27453 21.286 8.41988 21.286 8.57143C21.286 8.72298 21.3462 8.86833 21.4534 8.97549C21.5605 9.08265 21.7059 9.14286 21.8574 9.14286Z" fill="white"/>
</g>
<defs>
<clipPath id="clip0_274_57231">
<rect width="48" height="48" fill="white" transform="translate(0.142578)"/>
</clipPath>
</defs>
</svg>
