<svg width="52" height="48" viewBox="0 0 52 48" fill="none" xmlns="http://www.w3.org/2000/svg">
<path d="M17.8991 22.2764L12.0566 24.4019C12.1316 25.3379 12.2936 26.2634 12.5201 27.1709L18.0701 25.1504C17.8862 24.2042 17.8287 23.2378 17.8991 22.2764ZM43.7171 15.8174C43.3106 14.973 42.8339 14.1641 42.2921 13.3994L36.4511 15.5249C37.1306 16.2209 37.7006 17.0024 38.1671 17.8379L43.7171 15.8174Z" fill="white"/>
<path d="M30.866 14.1628C32.081 14.7298 33.134 15.5038 34.022 16.4098L39.863 14.2843C38.1951 11.9415 35.9479 10.0716 33.341 8.85729C24.9905 4.96329 15.029 8.58879 11.135 16.9378C9.91743 19.5437 9.39746 22.4211 9.62598 25.2883L15.4685 23.1628C15.5645 21.8645 15.8938 20.5942 16.4405 19.4128C18.971 13.9873 25.442 11.6338 30.866 14.1628ZM12.884 27.0388L7.33398 29.0608C7.84398 31.0843 8.72898 33.0073 9.94398 34.7188L15.773 32.5978C14.2882 31.0669 13.284 29.135 12.884 27.0403V27.0388Z" fill="white"/>
<path d="M37.0948 24.8371C36.9989 26.1364 36.6665 27.4073 36.1138 28.5871C33.5833 34.0126 27.1123 36.3661 21.6883 33.8371C20.5071 33.2868 19.4357 32.5264 18.5263 31.5931L12.6973 33.7156C14.3619 36.06 16.608 37.9308 19.2148 39.1441C27.5653 43.0366 37.5253 39.4111 41.4193 31.0621C42.6378 28.4582 43.1558 25.5815 42.9223 22.7161L37.0933 24.8371H37.0948ZM38.5303 17.7046L32.9803 19.7251C34.0212 21.5859 34.4937 23.711 34.3393 25.8376L40.1683 23.7166C40.0019 21.628 39.4464 19.5889 38.5303 17.7046Z" fill="white"/>
</svg>
