<svg width="49" height="48" viewBox="0 0 49 48" fill="none" xmlns="http://www.w3.org/2000/svg">
<path d="M35.6565 42.3168C35.6523 42.2693 35.2272 37.5141 34.5644 32.8125C34.3591 31.3571 34.1654 29.9826 33.3854 28.9451C32.5893 27.8863 31.2834 27.284 29.1515 26.9923C28.3142 26.8772 27.6459 27.5929 26.8998 28.7021C26.7996 28.8508 26.6954 29.0119 26.5876 29.1839H20.899C20.7823 28.9956 20.6704 28.8197 20.5641 28.6583C19.7897 27.4818 19.193 26.8158 18.4234 26.8944C16.2477 27.1165 14.9873 27.6213 14.2092 28.5823C13.4593 29.5085 13.2988 30.6889 13.0954 32.1835C13.0635 32.4179 13.0302 32.6633 12.9929 32.9197C12.4139 36.9064 11.773 42.234 11.7667 42.2874C11.7035 42.8137 12.079 43.2917 12.6054 43.355C12.6442 43.3597 12.6828 43.3619 12.721 43.3619C13.2001 43.3619 13.6145 43.0037 13.673 42.5162C13.6793 42.4631 14.3173 37.1591 14.893 33.1956C14.9311 32.9331 14.9653 32.682 14.998 32.4421C15.1672 31.198 15.2894 30.299 15.7015 29.7901C15.9702 29.4582 16.5136 29.0551 18.3222 28.8365C19.1335 29.6933 21.2877 33.658 22.9414 37.0906C23.1015 37.4231 23.4379 37.632 23.8062 37.632C23.8104 37.632 23.8145 37.632 23.8187 37.632C24.1919 37.632 24.5285 37.4084 24.6816 37.0681C24.6903 37.0489 25.555 35.1336 26.5826 33.1333C28.1499 30.0822 28.8875 29.1838 29.1451 28.9313C32.1423 29.3866 32.2688 30.2832 32.6631 33.0806C33.3189 37.7318 33.7399 42.4397 33.7439 42.4867C33.7908 43.0148 34.2567 43.4037 34.7852 43.3581C35.3133 43.3111 35.7034 42.8449 35.6565 42.3168Z" fill="white"/>
<path d="M31.8974 19.2769L28.866 16.2455L27.9263 17.3424L30.3792 19.7953L28.6353 21.539L26.3174 19.2211L25.3776 20.3181L28.1171 23.0574C28.8871 23.8274 32.0183 24.9094 32.9595 25.2227C33.034 25.2476 33.1107 25.2596 33.1867 25.2596C33.3747 25.2596 33.5586 25.1859 33.6958 25.0488L33.8887 24.8561C34.0815 24.6633 34.1488 24.3782 34.0626 24.1196C33.7494 23.1781 32.6675 20.0469 31.8974 19.2769ZM29.3408 22.1911L31.0312 20.5009C31.3514 21.0161 31.8579 22.2281 32.3113 23.4713C31.0683 23.0181 29.8563 22.5116 29.3408 22.1911ZM34.3923 7.69254C34.3972 7.21869 34.2174 6.77516 33.8857 6.44339L33.7768 6.33452C33.4503 6.00803 33.0131 5.82822 32.5463 5.82822C32.0778 5.82822 31.6379 6.00784 31.3055 6.33433L24.882 12.2614L19.1919 6.57126C18.7127 6.09203 18.0757 5.82812 17.398 5.82812C16.7203 5.82812 16.0833 6.09203 15.604 6.57126L15.4114 6.76403C14.4223 7.75321 14.4223 9.36256 15.4115 10.3516L20.9496 15.8898L19.1198 17.5781C19.1128 17.5846 19.1057 17.5914 19.0989 17.5981C18.8611 17.8359 18.7176 18.1273 18.6738 18.4491C18.5705 18.4352 18.4652 18.4256 18.3568 18.4256C17.8863 18.4256 17.187 18.5757 16.5301 19.2907C15.8791 19.9987 15.6141 20.7696 15.3804 21.4497C15.0416 22.4355 14.7969 23.1476 13.5409 23.6837C13.3211 23.7775 13.1622 23.9744 13.1166 24.2092C13.0713 24.444 13.1453 24.686 13.3144 24.855C13.7849 25.3257 14.9558 25.4934 15.8944 25.4934C17.0507 25.4934 19.2402 25.2435 20.9137 23.5698C21.4042 23.0794 21.6627 22.4802 21.6613 21.8372C21.6611 21.741 21.6534 21.6469 21.6426 21.5539C22.0182 21.5355 22.3576 21.3863 22.6279 21.1162C22.6346 21.1094 22.6413 21.1024 22.6479 21.0953L33.8864 8.915C34.2081 8.58755 34.3877 8.15411 34.3923 7.69254ZM16.4296 9.33337C16.0021 8.90579 16.0021 8.20988 16.4297 7.7822L16.6223 7.58944C16.8296 7.38227 17.105 7.26812 17.398 7.26812C17.691 7.26812 17.9663 7.38217 18.1736 7.58953L19.2795 8.69545L17.5357 10.4394L16.4296 9.33337ZM18.2144 11.1181L19.9583 9.37417L23.8229 13.2388L22.009 14.9126L18.2144 11.1181ZM19.8957 22.5516C18.5891 23.8584 16.8281 24.0535 15.8946 24.0535C15.7844 24.0535 15.6791 24.0508 15.5788 24.046C16.2392 23.382 16.5013 22.6196 16.7423 21.9178C16.9484 21.3181 17.1432 20.7516 17.5904 20.2652C17.8374 19.9963 18.0883 19.8657 18.3569 19.8657C18.8258 19.8657 19.3103 20.2443 19.5013 20.4307C19.5199 20.4504 19.5369 20.4676 19.5486 20.4794L19.5639 20.4946C19.7013 20.6343 20.7214 21.7259 19.8957 22.5516ZM32.8568 7.90825C32.85 7.91507 32.8431 7.92208 32.8365 7.92918L21.6023 20.1052C21.5887 20.1177 21.5838 20.1177 21.5646 20.1177C21.3509 20.1177 20.9512 19.8417 20.7595 19.6538L20.5883 19.4825C20.5879 19.4821 20.5873 19.4815 20.587 19.4811C20.5746 19.4681 20.5551 19.448 20.5323 19.4253C20.3411 19.2217 20.0984 18.8556 20.0983 18.659C20.0983 18.6408 20.0983 18.6366 20.1096 18.6243L32.2914 7.384C32.2985 7.37747 32.3056 7.37065 32.3125 7.36384C32.3957 7.2806 32.4947 7.26822 32.5464 7.26822C32.5941 7.26822 32.6849 7.27916 32.7591 7.35318L32.8678 7.46185C32.9427 7.53683 32.9531 7.62928 32.9527 7.67776C32.952 7.72864 32.9389 7.82627 32.8568 7.90825Z" fill="white"/>
</svg>
