<svg width="49" height="48" viewBox="0 0 49 48" fill="none" xmlns="http://www.w3.org/2000/svg">
<path d="M44.3917 4.5H3.89174C3.27507 4.52172 2.69212 4.78684 2.27044 5.23732C1.84877 5.68781 1.62271 6.28699 1.64174 6.90375V32.1C1.62372 32.7161 1.85023 33.3143 2.2718 33.764C2.69336 34.2137 3.27574 34.4783 3.89174 34.5H20.3917V37.5H15.1417C14.9428 37.5 14.7521 37.579 14.6114 37.7197C14.4708 37.8603 14.3917 38.0511 14.3917 38.25V42H12.8917V43.5H35.3917V42H33.8917V38.25C33.8917 38.0511 33.8127 37.8603 33.6721 37.7197C33.5314 37.579 33.3406 37.5 33.1417 37.5H27.8917V34.5H44.3917C45.0077 34.4783 45.5901 34.2137 46.0117 33.764C46.4332 33.3143 46.6598 32.7161 46.6417 32.1V6.90375C46.6608 6.28699 46.4347 5.68781 46.013 5.23732C45.5914 4.78684 45.0084 4.52172 44.3917 4.5ZM3.89174 6H44.3917C44.6101 6.02261 44.8109 6.12989 44.9511 6.29883C45.0914 6.46778 45.1598 6.68494 45.1417 6.90375V28.5H3.14174V6.90375C3.1237 6.68494 3.19212 6.46778 3.33232 6.29883C3.47253 6.12989 3.67335 6.02261 3.89174 6ZM32.3917 42H15.8917V39H32.3917V42ZM26.3917 37.5H21.8917V34.5H26.3917V37.5ZM44.3917 33H3.89174C3.67406 32.9774 3.47382 32.8706 3.33372 32.7025C3.19361 32.5344 3.12472 32.3182 3.14174 32.1V30H45.1417V32.1C45.1587 32.3182 45.0899 32.5344 44.9498 32.7025C44.8097 32.8706 44.6094 32.9774 44.3917 33Z" fill="white"/>
<path d="M41.3926 30.75H42.8926V32.25H41.3926V30.75ZM25.6426 19.5H27.5341C27.6134 19.7227 27.704 19.9413 27.8056 20.1547L26.4676 21.4928C26.327 21.6334 26.248 21.8241 26.248 22.023C26.248 22.2219 26.327 22.4126 26.4676 22.5532L28.5893 24.675C28.73 24.8156 28.9207 24.8946 29.1196 24.8946C29.3185 24.8946 29.5092 24.8156 29.6498 24.675L30.9878 23.3378C31.2013 23.4393 31.4199 23.5299 31.6426 23.6093V25.5C31.6426 25.6989 31.7216 25.8897 31.8622 26.0303C32.0029 26.171 32.1937 26.25 32.3926 26.25H35.3926C35.5915 26.25 35.7823 26.171 35.9229 26.0303C36.0636 25.8897 36.1426 25.6989 36.1426 25.5V23.6085C36.3653 23.5292 36.5838 23.4386 36.7973 23.337L38.1353 24.675C38.276 24.8156 38.4667 24.8946 38.6656 24.8946C38.8645 24.8946 39.0552 24.8156 39.1958 24.675L41.3176 22.5532C41.4582 22.4126 41.5372 22.2219 41.5372 22.023C41.5372 21.8241 41.4582 21.6334 41.3176 21.4928L39.9803 20.1547C40.0817 19.9412 40.172 19.7227 40.2511 19.5H42.1426C42.3415 19.5 42.5323 19.421 42.6729 19.2803C42.8136 19.1397 42.8926 18.9489 42.8926 18.75V15.75C42.8926 15.5511 42.8136 15.3603 42.6729 15.2197C42.5323 15.079 42.3415 15 42.1426 15H40.2511C40.1718 14.7773 40.0812 14.5587 39.9796 14.3453L41.3176 13.0073C41.4582 12.8666 41.5372 12.6759 41.5372 12.477C41.5372 12.2781 41.4582 12.0874 41.3176 11.9467L39.1958 9.825C39.0552 9.6844 38.8645 9.60541 38.6656 9.60541C38.4667 9.60541 38.276 9.6844 38.1353 9.825L36.7973 11.1623C36.5838 11.0609 36.3653 10.9706 36.1426 10.8915V9C36.1426 8.80109 36.0636 8.61032 35.9229 8.46967C35.7823 8.32902 35.5915 8.25 35.3926 8.25H32.3926C32.1937 8.25 32.0029 8.32902 31.8622 8.46967C31.7216 8.61032 31.6426 8.80109 31.6426 9V10.8915C31.4199 10.9708 31.2013 11.0614 30.9878 11.163L29.6498 9.825C29.5092 9.6844 29.3185 9.60541 29.1196 9.60541C28.9207 9.60541 28.73 9.6844 28.5893 9.825L26.4676 11.9467C26.327 12.0874 26.248 12.2781 26.248 12.477C26.248 12.6759 26.327 12.8666 26.4676 13.0073L27.8048 14.3453C27.7032 14.5587 27.6126 14.7773 27.5333 15H25.6426C25.4437 15 25.2529 15.079 25.1122 15.2197C24.9716 15.3603 24.8926 15.5511 24.8926 15.75V18.75C24.8926 18.9489 24.9716 19.1397 25.1122 19.2803C25.2529 19.421 25.4437 19.5 25.6426 19.5ZM26.3926 16.5H28.0891C28.2553 16.5 28.4168 16.4447 28.5482 16.3429C28.6797 16.2411 28.7735 16.0985 28.8151 15.9375C28.9375 15.4637 29.1256 15.0093 29.3738 14.5875C29.4585 14.4442 29.4931 14.2768 29.4722 14.1117C29.4513 13.9466 29.376 13.7932 29.2583 13.6755L28.0583 12.4755L29.1188 11.415L30.3188 12.615C30.4365 12.7327 30.5899 12.8079 30.7551 12.8289C30.9202 12.8498 31.0875 12.8152 31.2308 12.7305C31.6526 12.4822 32.107 12.2942 32.5808 12.1718C32.7418 12.1302 32.8844 12.0363 32.9862 11.9049C33.088 11.7735 33.1433 11.612 33.1433 11.4457V9.75H34.6433V11.4465C34.6434 11.6127 34.6986 11.7743 34.8005 11.9057C34.9023 12.0371 35.0449 12.1309 35.2058 12.1725C35.6797 12.2949 36.1341 12.483 36.5558 12.7313C36.6991 12.8159 36.8665 12.8505 37.0316 12.8296C37.1967 12.8087 37.3502 12.7335 37.4678 12.6157L38.6678 11.4157L39.7283 12.4763L38.5283 13.6763C38.4106 13.7939 38.3354 13.9474 38.3145 14.1125C38.2936 14.2776 38.3282 14.445 38.4128 14.5883C38.6611 15.01 38.8492 15.4644 38.9716 15.9382C39.0131 16.0992 39.107 16.2418 39.2384 16.3436C39.3698 16.4454 39.5313 16.5007 39.6976 16.5007H41.3926V18.0007H39.6961C39.5298 18.0008 39.3683 18.0561 39.2369 18.1579C39.1055 18.2597 39.0116 18.4023 38.9701 18.5632C38.8477 19.0371 38.6596 19.4915 38.4113 19.9132C38.3267 20.0565 38.2921 20.2239 38.313 20.389C38.3339 20.5541 38.4091 20.7076 38.5268 20.8253L39.7268 22.0253L38.6663 23.0858L37.4663 21.8857C37.3487 21.768 37.1952 21.6928 37.0301 21.6719C36.865 21.651 36.6976 21.6856 36.5543 21.7703C36.1326 22.0185 35.6782 22.2066 35.2043 22.329C35.0434 22.3706 34.9008 22.4644 34.799 22.5958C34.6971 22.7272 34.6419 22.8888 34.6418 23.055V24.75H33.1426V23.0535C33.1425 22.8873 33.0873 22.7257 32.9854 22.5943C32.8836 22.4629 32.741 22.3691 32.5801 22.3275C32.1062 22.2051 31.6518 22.017 31.2301 21.7687C31.0868 21.6841 30.9194 21.6495 30.7543 21.6704C30.5892 21.6913 30.4357 21.7665 30.3181 21.8843L29.1181 23.0842L28.0576 22.0238L29.2576 20.8237C29.3753 20.7061 29.4505 20.5526 29.4714 20.3875C29.4923 20.2224 29.4577 20.055 29.3731 19.9117C29.1248 19.49 28.9367 19.0356 28.8143 18.5618C28.7728 18.4008 28.6789 18.2582 28.5475 18.1564C28.4161 18.0546 28.2546 17.9993 28.0883 17.9993H26.3926V16.5Z" fill="white"/>
<path d="M33.8924 21C34.6341 21 35.3591 20.78 35.9758 20.368C36.5925 19.9559 37.0731 19.3703 37.357 18.685C37.6408 17.9998 37.7151 17.2458 37.5704 16.5184C37.4257 15.791 37.0685 15.1228 36.5441 14.5983C36.0196 14.0739 35.3514 13.7167 34.624 13.572C33.8966 13.4273 33.1426 13.5016 32.4574 13.7854C31.7721 14.0693 31.1865 14.5499 30.7744 15.1666C30.3624 15.7833 30.1424 16.5083 30.1424 17.25C30.1436 18.2442 30.5391 19.1973 31.2421 19.9003C31.9451 20.6033 32.8982 20.9988 33.8924 21ZM33.8924 15C34.3374 15 34.7724 15.1319 35.1425 15.3792C35.5125 15.6264 35.8008 15.9778 35.9711 16.3889C36.1414 16.8001 36.186 17.2525 36.0992 17.6889C36.0124 18.1254 35.7981 18.5263 35.4834 18.841C35.1687 19.1556 34.7678 19.3699 34.3314 19.4567C33.8949 19.5436 33.4425 19.499 33.0314 19.3287C32.6202 19.1584 32.2688 18.87 32.0216 18.5C31.7744 18.13 31.6424 17.695 31.6424 17.25C31.6424 16.6532 31.8795 16.0809 32.3014 15.659C32.7234 15.237 33.2957 15 33.8924 15ZM7.11217 12.5302L8.17267 11.4697L7.20292 10.5L8.17267 9.53023L7.11217 8.46973L5.61217 9.96973C5.47156 10.1104 5.39258 10.3011 5.39258 10.5C5.39258 10.6988 5.47156 10.8896 5.61217 11.0302L7.11217 12.5302ZM9.29242 11.55L11.5424 8.54998L12.7424 9.44998L10.4924 12.45L9.29242 11.55ZM14.9227 12.5302L16.4227 11.0302C16.5633 10.8896 16.6423 10.6988 16.6423 10.5C16.6423 10.3011 16.5633 10.1104 16.4227 9.96973L14.9227 8.46973L13.8622 9.53023L14.8319 10.5L13.8622 11.4697L14.9227 12.5302ZM18.1424 11.25H19.6424V12.75H18.1424V11.25ZM6.89242 14.25H9.89242V15.75H6.89242V14.25ZM11.3924 14.25H12.8924V15.75H11.3924V14.25ZM14.3924 14.25H18.8924V15.75H14.3924V14.25ZM20.3924 14.25H21.8924V15.75H20.3924V14.25ZM8.39242 17.25H9.89242V18.75H8.39242V17.25ZM11.3924 17.25H14.3924V18.75H11.3924V17.25ZM15.8924 17.25H17.3924V18.75H15.8924V17.25ZM18.8924 17.25H21.8924V18.75H18.8924V17.25ZM6.89242 21.75H9.89242V23.25H6.89242V21.75ZM11.3924 21.75H12.8924V23.25H11.3924V21.75ZM14.3924 21.75H18.8924V23.25H14.3924V21.75ZM20.3924 21.75H21.8924V23.25H20.3924V21.75ZM8.39242 24.75H9.89242V26.25H8.39242V24.75ZM11.3924 24.75H14.3924V26.25H11.3924V24.75ZM15.8924 24.75H17.3924V26.25H15.8924V24.75ZM18.8924 24.75H21.8924V26.25H18.8924V24.75Z" fill="white"/>
</svg>
